<?xml version="1.0" standalone="no"?>
<!DOCTYPE svg PUBLIC "-//W3C//DTD SVG 1.1//EN" "http://www.w3.org/Graphics/SVG/1.1/DTD/svg11.dtd" >
<svg>
<metadata>
Created by FontForge 20120731 at Sat Jun 29 21:25:55 2019
 By www
Copyright (c) 1992 Corel Corporation. All Rights Reserved.
</metadata>
<defs>
<font id="BahamasPlain" horiz-adv-x="2281" >
  <font-face 
    font-family="Bahamas"
    font-weight="400"
    font-stretch="normal"
    units-per-em="4096"
    panose-1="2 11 114 0 0 0 0 0 0 0"
    ascent="3276"
    descent="-820"
    x-height="1966"
    cap-height="2871"
    bbox="-262 -950 4178 3854"
    underline-thickness="50"
    underline-position="-75"
    unicode-range="U+0020-F002"
  />
<missing-glyph horiz-adv-x="3072" 
d="M512 0v2560h2048v-2560h-2048zM2494 66v2428h-1916v-2428h1916z" />
    <glyph glyph-name=".notdef" horiz-adv-x="3072" 
d="M512 0v2560h2048v-2560h-2048zM2494 66v2428h-1916v-2428h1916z" />
    <glyph glyph-name=".null" horiz-adv-x="0" 
 />
    <glyph glyph-name="nonmarkingreturn" horiz-adv-x="0" 
 />
    <glyph glyph-name="brokenbar" unicode="&#xa6;" horiz-adv-x="631" 
d="M287 2871h319v-2871h-319v2871z" />
    <glyph glyph-name="twosuperior" unicode="&#xb2;" horiz-adv-x="1360" 
d="M57 2359q0 143 79.5 273t222.5 209t321 79q202 0 340.5 -75.5t205.5 -187t77 -224.5q0 -196 -70 -346t-291 -301l-549 -402h918v-225h-992q-278 0 -294 168q14 114 77 160l770 561q177 131 177 360q0 119 -95 199t-258 80q-159 0 -259.5 -98.5t-100.5 -221.5
q0 -115 58 -195t135.5 -119.5t142.5 -45.5l-246 -160q-369 153 -369 512z" />
    <glyph glyph-name="threesuperior" unicode="&#xb3;" horiz-adv-x="1360" 
d="M66 1167v226h589q181 0 279 88t98 231q0 128 -115.5 203.5t-322.5 75.5h-299v184l594 479v8h-787v226h828q262 0 262 -185q-4 -64 -90.5 -154.5t-196 -177.5t-184.5 -147v-8q173 0 308 -60.5t212.5 -174t77.5 -261.5q0 -249 -157 -401t-400 -152h-696z" />
    <glyph glyph-name="onesuperior" unicode="&#xb9;" horiz-adv-x="1360" 
d="M319 2888h545v-1721h-286v1495h-320z" />
    <glyph glyph-name="onequarter" unicode="&#xbc;" horiz-adv-x="3416" 
d="M950 -49h-278l1769 2969h287zM2200 614h544v738l271 393l16 8v-1139h258v-221h-258v-393h-287v393h-680q-153 0 -168 135q12 95 70 193l602 999h303zM319 2888h545v-1721h-286v1495h-320z" />
    <glyph glyph-name="onehalf" unicode="&#xbd;" horiz-adv-x="3416" 
d="M905 -49h-282l1769 2969h287zM3367 0h-1040q-246 0 -263 143q7 75 62 147.5t123 102.5l655 471q201 158 201 344q0 144 -95 232t-241 88q-178 0 -277.5 -97.5t-99.5 -263.5q0 -126 101.5 -217t234.5 -110l-254 -152q-176 62 -272.5 194.5t-96.5 317.5q0 167 90.5 292.5
t241.5 193t324 67.5q167 0 313.5 -73t231.5 -199.5t85 -272.5q0 -189 -104 -320.5t-326 -293.5l-512 -361v-8h918v-225zM319 2888h545v-1721h-286v1495h-320z" />
    <glyph glyph-name="threequarters" unicode="&#xbe;" horiz-adv-x="3416" 
d="M1081 -49h-290l1777 2969h279zM66 1167v226h589q181 0 279 88t98 231q0 128 -115.5 203.5t-322.5 75.5h-299v184l594 479v8h-787v226h828q237 0 237 -168q0 -81 -54.5 -166.5t-145.5 -136.5l-246 -193v-8q173 0 308 -60.5t212.5 -174t77.5 -261.5q0 -249 -157 -401
t-400 -152h-696zM2200 614h544v738l271 393l16 8v-1139h258v-221h-258v-393h-287v393h-680q-151 0 -168 135q12 95 70 193l602 999h303z" />
    <glyph glyph-name="Eth" unicode="&#xd0;" horiz-adv-x="2503" 
d="M655 1303v-1303h-385v1303h-311v360h311v1208h721q301 0 559 -112.5t448.5 -312t296 -462.5t105.5 -550q0 -285 -105 -546.5t-296 -462t-450.5 -313t-557.5 -112.5h-176v360h217q265 0 487.5 141t351 387.5t128.5 545.5q0 233 -81.5 432t-231 344t-354 223t-443.5 78
h-234v-848h697v-360h-697z" />
    <glyph glyph-name="Yacute" unicode="&#xdd;" horiz-adv-x="2048" 
d="M94 2871h385v-905q16 -204 147.5 -341.5t422.5 -137.5q200 7 316.5 91t160 194t43.5 210v889h385v-909q-9 -229 -116.5 -407t-273 -286t-347.5 -143v-1126h-394v1126q-278 68 -497.5 268.5t-231.5 604.5v872zM856 3023l369 594h446l-528 -594h-287z" />
    <glyph glyph-name="Thorn" unicode="&#xde;" horiz-adv-x="2048" 
d="M586 -8h-385v2089v774h385v-647q90 90 236.5 137t287.5 47q283 0 501 -127.5t335.5 -340.5t117.5 -454q0 -252 -109 -463t-303 -332.5t-435 -121.5h-480v360h406q237 0 386.5 149.5t149.5 407.5q0 254 -159.5 408t-401.5 154q-151 0 -272.5 -72t-190.5 -205.5t-69 -312.5
v-1450z" />
    <glyph glyph-name="eth" unicode="&#xf0;" 
d="M614 2687l217 233q241 -101 435 -249l422 225l200 -242l-368 -196q138 -131 253 -285.5t201 -328t135.5 -364.5t49.5 -382q0 -347 -138.5 -607t-372.5 -396t-513 -136q-270 0 -503.5 130.5t-373 364.5t-139.5 529q0 230 75.5 423.5t208 329t306.5 207.5t364 72
q121 0 238 -24q67 -82 138.5 -223t94.5 -240h-8q-142 135 -401 135q-275 0 -457 -190.5t-182 -489.5q0 -295 182 -487.5t457 -192.5q190 0 337 93t230.5 272t83.5 430q0 223 -73.5 441t-202.5 409.5t-293 349.5l-443 -225l-188 237l364 193q-181 124 -336 184z" />
    <glyph glyph-name="yacute" unicode="&#xfd;" horiz-adv-x="2048" 
d="M209 1974h360v-1175q0 -466 455 -488q216 0 335.5 138.5t119.5 341.5v1183h368v-1175q0 -298 -157.5 -524t-481.5 -308v-839h-368v839q-184 52 -320 146t-217.5 241.5t-93.5 350.5v1269zM754 2208l364 594h451l-529 -594h-286z" />
    <glyph glyph-name="thorn" unicode="&#xfe;" 
d="M537 -889h-361v3760h361v-1093q265 229 630 229q236 0 425 -83t321 -230.5t201 -341t69 -414.5q0 -268 -131 -494t-351 -355.5t-468 -129.5q-312 0 -553 135v377q105 -70 242 -119t254 -49q190 0 336.5 84.5t228.5 238t82 349.5q0 200 -83.5 357t-233.5 244t-339 87
q-273 0 -451.5 -207.5t-178.5 -591.5v-1753z" />
    <glyph glyph-name="space" unicode=" " horiz-adv-x="1135" 
 />
    <glyph glyph-name="exclam" unicode="!" horiz-adv-x="913" 
d="M270 655v2216h344v-2216h-344zM193 209q0 104 70 175t167 71q112 0 189 -66.5t77 -187.5q0 -108 -73.5 -179t-184.5 -71q-98 0 -171.5 74.5t-73.5 183.5z" />
    <glyph glyph-name="quotedbl" unicode="&#x22;" horiz-adv-x="1360" 
d="M807 1761v1110h336v-1110h-336zM225 1761v1110h336v-1110h-336z" />
    <glyph glyph-name="numbersign" unicode="#" 
d="M127 881l16 262h435l77 586h-405l12 262h434l119 880h295l-119 -880h488l123 880h294l-118 -880h364l-8 -262h-397l-82 -586h377l-17 -262h-397l-123 -881h-295l119 881h-479l-127 -881h-295l127 881h-418zM872 1143h488l82 586h-492z" />
    <glyph glyph-name="dollar" unicode="$" 
d="M369 393v344h655v791q-113 68 -231.5 139.5t-215.5 157t-161 203t-64 270.5q0 299 203 432.5t469 148.5v328h311v-336h553v-344h-553v-729q223 -138 308.5 -195t171.5 -142.5t135 -204t49 -281.5q0 -240 -146.5 -408.5t-517.5 -173.5v-442h-311v442h-655zM1024 1929v598
q-154 0 -232.5 -66t-78.5 -163q0 -230 311 -369zM1335 737q145 0 224 76t79 211q-6 99 -78.5 178.5t-224.5 181.5v-647z" />
    <glyph glyph-name="percent" unicode="%" horiz-adv-x="3641" 
d="M688 -49l1905 2969h254l-1905 -2969h-254zM193 2241q0 201 92 355.5t247 239t340 84.5q181 0 330 -88t235 -235.5t91 -323.5q0 -207 -91 -365.5t-246 -244.5t-335 -86q-164 0 -314 79.5t-246 231t-103 353.5zM2007 614q5 193 93.5 347.5t246.5 243.5t356 89
q214 -10 360.5 -114.5t217 -258t70.5 -307.5q-9 -202 -101.5 -353t-240.5 -230.5t-314 -79.5q-223 0 -379 103.5t-232.5 258.5t-76.5 301zM504 2257q0 -160 106 -256.5t254 -104.5q145 8 244.5 104.5t99.5 272.5q-6 158 -104 239t-240 81t-251 -90.5t-109 -245.5zM2327 623
q0 -178 112.5 -265.5t231.5 -87.5q86 0 170 39.5t137 115.5t53 181q0 165 -102 267t-250 102q-106 0 -185.5 -52.5t-123 -134.5t-43.5 -165z" />
    <glyph glyph-name="ampersand" unicode="&#x26;" horiz-adv-x="2736" 
d="M623 2081q-193 243 -193 405q0 169 104.5 277t337.5 108h1160v-360h-1119q-102 0 -114 -53q8 -35 57 -99l1249 -1597q73 128 86 336q0 163 -75 339t-195 308l254 262q393 -364 393 -889q-5 -148 -25 -248.5t-62.5 -195.5t-129.5 -244l344 -422h-471l-143 152
q-123 -92 -290 -146.5t-472 -54.5q-230 0 -497 107t-465.5 367.5t-213.5 684.5q0 333 150.5 589.5t329.5 373.5zM1864 479l-1000 1299q-157 -91 -242 -279t-85 -373q0 -208 98.5 -394t277 -299.5t406.5 -113.5q184 0 307 34.5t238 125.5z" />
    <glyph glyph-name="quotesingle" unicode="'" horiz-adv-x="913" 
d="M233 2048l144 823h352l-192 -823h-304z" />
    <glyph glyph-name="parenleft" unicode="(" horiz-adv-x="1593" 
d="M295 1126q20 469 158.5 827.5t331.5 592t399 374.5l159 -217q-60 -55 -177.5 -164t-241.5 -293.5t-213.5 -472.5t-96.5 -683q0 -340 94.5 -651.5t259.5 -556t375 -402.5l-143 -250q-359 272 -561.5 615t-273 666.5t-70.5 614.5z" />
    <glyph glyph-name="parenright" unicode=")" horiz-adv-x="1593" 
d="M983 1065q-16 397 -121 721.5t-265 548t-339 344.5l143 241q237 -149 438.5 -415.5t327.5 -635t136 -796.5q0 -361 -99 -705t-300 -637.5t-486 -492.5l-160 217q370 311 547.5 718t177.5 892z" />
    <glyph glyph-name="asterisk" unicode="*" horiz-adv-x="2048" 
d="M799 2073l-541 278l160 258l504 -344l-50 598h312l-49 -598l512 344l151 -258l-541 -278l541 -287l-160 -258l-503 327l49 -573h-312l50 573l-504 -335l-160 266z" />
    <glyph glyph-name="plus" unicode="+" horiz-adv-x="2458" 
d="M250 831v320h823v815h320v-815h823v-320h-823v-831h-320v831h-823z" />
    <glyph glyph-name="comma" unicode="," horiz-adv-x="1135" 
d="M258 -410l168 803h381l-229 -803h-320z" />
    <glyph glyph-name="hyphen" unicode="-" horiz-adv-x="1135" 
d="M111 815v328h921v-328h-921z" />
    <glyph glyph-name="period" unicode="." horiz-adv-x="1135" 
d="M328 225q6 99 73 164.5t160 65.5q61 0 118.5 -27t92.5 -79t35 -124q0 -113 -73 -181.5t-173 -68.5q-95 0 -164 70.5t-69 179.5z" />
    <glyph glyph-name="slash" unicode="/" horiz-adv-x="1135" 
d="M-25 -49l873 2969h311l-864 -2969h-320z" />
    <glyph glyph-name="zero" unicode="0" 
d="M135 983v922q0 224 80.5 412t222.5 324t322.5 207.5t374.5 71.5q358 0 584.5 -170.5t324.5 -412t98 -457.5v-922q0 -225 -115 -459.5t-345 -391t-547 -156.5q-338 7 -564.5 168.5t-331 397t-104.5 466.5zM1729 991v889q0 325 -164 490t-430 165q-275 -6 -428.5 -181
t-153.5 -458v-864q0 -683 582 -696q175 0 309.5 72.5t209.5 220t75 362.5z" />
    <glyph glyph-name="one" unicode="1" 
d="M455 2511l114 360h799v-2871h-393v2511h-520z" />
    <glyph glyph-name="two" unicode="2" 
d="M168 1999q0 240 121.5 451t346.5 338.5t523 131.5q343 0 556 -153.5t301.5 -364t88.5 -387.5q-5 -191 -52.5 -335.5t-180.5 -303t-385 -352.5l-856 -664h1458v-360h-1511q-225 0 -334.5 77.5t-116.5 201.5q13 196 160 299l1106 864q319 248 319 590q0 133 -68 252.5
t-200.5 195.5t-317.5 80q-177 0 -305 -83.5t-194 -215t-66 -270.5q0 -280 176.5 -416.5t368.5 -165.5l-344 -266q-184 70 -318.5 192t-205 290t-70.5 374z" />
    <glyph glyph-name="three" unicode="3" 
d="M250 2511v360h1200q253 0 349.5 -76t96.5 -227q0 -119 -70 -216.5t-208 -221.5l-451 -377q248 0 461 -99t341 -299t128 -483q-7 -253 -122.5 -453t-312.5 -309.5t-437 -109.5h-1041v360h967q260 0 403 155.5t150 373.5q0 139 -73 252.5t-213.5 182t-336.5 77.5h-495v278
l893 832h-1229z" />
    <glyph glyph-name="four" unicode="4" 
d="M1343 1024v1241l394 672v-1913h430v-360h-430v-664h-394v664h-1048q-245 0 -262 225q9 68 33 135l1024 1847h421l-1032 -1847h864z" />
    <glyph glyph-name="five" unicode="5" 
d="M352 1401v1470h1495v-360h-1102v-750h406q949 -45 971 -889q0 -373 -233 -609t-554 -263h-1102v360h967q274 12 389 163.5t115 357.5q-8 166 -65.5 277.5t-189 172.5t-351.5 70h-746z" />
    <glyph glyph-name="six" unicode="6" 
d="M94 983q16 197 56.5 331t94.5 224.5t173 259.5l758 1073h479l-791 -1102q-143 -197 -217.5 -315.5t-112.5 -240t-38 -275.5q0 -149 80.5 -295t227.5 -239t331 -93q175 0 326.5 87t242 239.5t90.5 337.5q-4 234 -104 391.5t-280 235t-427 77.5l234 328q318 -7 537 -152.5
t325.5 -374.5t111.5 -489q0 -189 -70.5 -370.5t-206 -329.5t-335.5 -237t-444 -95q-291 0 -531 136t-375 371t-135 517z" />
    <glyph glyph-name="seven" unicode="7" 
d="M184 2511v360h1434q216 0 335.5 -58t119.5 -212q0 -102 -74 -274l-1032 -2327h-447l1118 2511h-1454z" />
    <glyph glyph-name="eight" unicode="8" 
d="M578 1630q-135 118 -205 247.5t-70 305.5q0 172 91 343t284 282.5t481 111.5q226 0 407.5 -96t284.5 -268t103 -389q0 -296 -258 -545q263 -146 363 -339t100 -476q0 -164 -71 -317.5t-206 -275.5t-322 -192.5t-409 -70.5q-376 4 -609.5 151t-332 352.5t-98.5 393.5
q0 459 467 782zM721 2142q0 -136 111.5 -250t310.5 -114q375 32 393 389q0 139 -92 266t-309 127q-178 0 -296 -105.5t-118 -312.5zM537 872q0 -159 73 -289.5t211 -205t322 -74.5q159 0 297 65t221.5 190.5t83.5 297.5q0 194 -92 321.5t-230.5 183.5t-279.5 56
q-200 -4 -337.5 -82.5t-203 -201t-65.5 -261.5z" />
    <glyph glyph-name="nine" unicode="9" 
d="M102 1888q0 166 66.5 347t199 337t333.5 252t458 96q280 0 515.5 -134t372 -364.5t136.5 -508.5q0 -393 -303 -815l-774 -1098h-475l897 1266q138 187 199 330t67 309q0 119 -47.5 235.5t-135 212t-205 151.5t-247.5 56h-8q-164 -5 -315 -88t-245.5 -245t-94.5 -388
q6 -142 60.5 -262t157.5 -206.5t251 -132.5t329 -46l-221 -328q-376 19 -592.5 188.5t-297.5 393.5t-81 442z" />
    <glyph glyph-name="colon" unicode=":" horiz-adv-x="1135" 
d="M328 1401q0 93 69 162t164 75q97 0 171.5 -65t74.5 -172q0 -110 -64 -176t-157 -66q-91 0 -174.5 62t-83.5 180zM328 217q0 102 68 167t165 71q62 0 120.5 -30.5t96 -87t37.5 -128.5q-5 -107 -88.5 -170.5t-157.5 -63.5q-103 8 -172 69.5t-69 172.5z" />
    <glyph glyph-name="semicolon" unicode=";" horiz-adv-x="1135" 
d="M258 -410l172 811h385l-237 -811h-320zM328 1393q0 112 70.5 179.5t170.5 74.5q92 0 169 -75.5t77 -178.5q-6 -101 -72.5 -167.5t-156.5 -66.5q-101 0 -176.5 65t-81.5 169z" />
    <glyph glyph-name="less" unicode="&#x3c;" horiz-adv-x="2458" 
d="M2216 279v-320l-1966 881v278l1966 873v-320l-1569 -696z" />
    <glyph glyph-name="equal" unicode="=" horiz-adv-x="2458" 
d="M2216 1552v-319h-1966v319h1966zM2216 745v-319h-1966v319h1966z" />
    <glyph glyph-name="greater" unicode="&#x3e;" horiz-adv-x="2458" 
d="M250 279l1565 696l-1565 696v320l1966 -873v-278l-1966 -881v320z" />
    <glyph glyph-name="question" unicode="?" horiz-adv-x="1815" 
d="M721 655v906q190 0 337.5 33.5t249.5 145t109 324.5q0 121 -53 236t-161 187.5t-261 72.5q-227 -6 -336.5 -167.5t-109.5 -385.5h-394q0 256 111 465.5t311 328.5t451 119q175 0 326 -68t262.5 -186t173 -266.5t61.5 -302.5q0 -234 -94 -424.5t-258.5 -308.5t-372.5 -147
v-562h-352zM639 217q0 102 75.5 171t174.5 75q96 0 176 -64.5t86 -181.5q0 -121 -76 -193.5t-186 -72.5q-100 6 -175 79.5t-75 186.5z" />
    <glyph glyph-name="at" unicode="@" horiz-adv-x="3281" 
d="M217 1425q0 277 104.5 545t297 480t459.5 338t577 132q362 0 634 -113.5t444.5 -293t255.5 -379.5t83 -373q0 -285 -120 -557t-343 -449.5t-512 -193.5q-109 0 -171 77.5t-62 160.5q-178 -238 -447 -238q-162 0 -301 77t-224 235.5t-85 383.5q17 238 121.5 466.5
t297 379.5t453.5 162q180 0 301.5 -83.5t178.5 -207.5l73 226h287l-328 -1192q-8 -50 -8 -62q0 -93 90 -106q96 5 221 111.5t214.5 292.5t89.5 419q0 61 -5 90q-18 229 -140 436.5t-370 340t-612 132.5q-269 -12 -525.5 -141.5t-429 -401t-188.5 -677.5q0 -385 173.5 -664
t440 -421.5t537.5 -147.5q33 8 66 8q185 0 370.5 61t331 155.5t215.5 189.5h299q-133 -188 -300 -334.5t-414.5 -242t-567.5 -95.5q-349 9 -625.5 146.5t-462 356t-280 475t-94.5 496.5zM2032 1561q0 122 -44.5 211.5t-119 135.5t-164.5 46q-141 0 -270 -104.5t-206 -267
t-77 -325.5q0 -325 303 -385q144 0 278.5 106t217 267t82.5 316z" />
    <glyph glyph-name="A" unicode="A" 
d="M160 0l8 1905q12 292 139.5 525t342 361.5t476.5 128.5q287 0 512 -129t352.5 -379.5t131.5 -596.5v-1815h-385v1303h-1032v368h1032q0 19 2 55t2 52q0 258 -71.5 432.5t-203.5 262t-315 87.5h-8q-221 0 -353 -109t-184.5 -258.5t-52.5 -287.5v-1905h-393z" />
    <glyph glyph-name="B" unicode="B" 
d="M242 0v2089q14 211 126 399.5t312 306.5t463 125q260 0 470 -90.5t334.5 -267.5t133.5 -420q-5 -250 -71.5 -371.5t-211.5 -234.5q396 -217 410 -672q0 -273 -113 -468.5t-308.5 -295.5t-434.5 -100h-578v360h553q496 35 496 471q0 168 -75.5 273t-198 152t-267.5 47
h-508v360h451q256 18 363.5 150t107.5 309q-9 149 -79 246t-189 144.5t-269 47.5q-254 -6 -388.5 -154t-147.5 -366v-2040h-381z" />
    <glyph glyph-name="C" unicode="C" horiz-adv-x="2048" 
d="M143 1450q4 320 136.5 584t347.5 451t467.5 286.5t490.5 99.5h369v-360h-307q-358 -17 -606 -175t-368 -400.5t-120 -510.5q0 -214 87 -457t330 -425.5t668 -182.5h316v-360h-385q-411 0 -736.5 191.5t-507.5 524.5t-182 734z" />
    <glyph glyph-name="D" unicode="D" horiz-adv-x="2503" 
d="M250 0v2871h758q314 0 622.5 -162t515.5 -484t230 -771q-3 -255 -83.5 -503.5t-247 -460.5t-422.5 -343t-599 -147h-233v369h266q272 0 481.5 166t322.5 419t113 500q-11 295 -142.5 535t-372.5 381t-562 141h-266v-2511h-381z" />
    <glyph glyph-name="E" unicode="E" horiz-adv-x="2048" 
d="M94 1417q19 545 274.5 871t593 454.5t631.5 128.5h295v-360h-311q-317 -17 -555.5 -146.5t-371 -315.5t-154.5 -378h1392v-368h-1392q18 -213 132.5 -420.5t331.5 -353t519 -169.5h409v-360h-344q-259 0 -514 94.5t-467.5 279.5t-339 450.5t-129.5 592.5z" />
    <glyph glyph-name="F" unicode="F" horiz-adv-x="1593" 
d="M111 0v1974q30 470 284 683.5t670 213.5h414v-360h-414q-544 0 -569 -529v-372h983v-361h-983v-1249h-385z" />
    <glyph glyph-name="G" unicode="G" horiz-adv-x="3183" 
d="M94 1454q16 368 160.5 648.5t371 461.5t487.5 268.5t509 87.5q353 0 623 -125t532 -387l-250 -286q-238 205 -444 321.5t-465 116.5q-350 -4 -605 -167.5t-386 -418.5t-131 -524q0 -206 73.5 -407t217.5 -364.5t352.5 -262t470.5 -105.5q316 4 551.5 147.5t361 361.5
t131.5 437h-1007v361h1409v-291q-6 -305 -128.5 -560t-331 -439t-465 -280.5t-521.5 -96.5q-311 3 -582.5 113.5t-480 314.5t-326 477t-127.5 598z" />
    <glyph glyph-name="H" unicode="H" horiz-adv-x="2503" 
d="M250 0v2879h381v-1200h1241v1209h393v-2888h-393v1319h-1241v-1319h-381z" />
    <glyph glyph-name="I" unicode="I" horiz-adv-x="913" 
d="M262 0v2871h393v-2871h-393z" />
    <glyph glyph-name="J" unicode="J" horiz-adv-x="1360" 
d="M799 2871h385v-1929q0 -384 -205 -663t-762 -279h-217v360h270q529 42 529 529v1982z" />
    <glyph glyph-name="K" unicode="K" 
d="M262 2871h385v-1208h344q120 0 207 62.5t143.5 156t128.5 252.5l336 737h435l-410 -889q-41 -110 -125.5 -221t-194.5 -159q288 -78 441 -266t153 -529v-807h-393l8 823q0 222 -138.5 351t-438.5 129h-496v-1303h-385v2871z" />
    <glyph glyph-name="L" unicode="L" horiz-adv-x="1593" 
d="M262 2871h377v-1872q13 -209 68.5 -348.5t181.5 -215t344 -75.5h369v-360h-467q-175 0 -368.5 84t-338 275t-166.5 489v2023z" />
    <glyph glyph-name="M" unicode="M" horiz-adv-x="3183" 
d="M0 0l319 2552q19 170 119.5 273.5t225.5 103.5q107 0 199.5 -79t135.5 -233l603 -1978l573 1937q53 175 147.5 259.5t204.5 84.5q128 0 222 -87t106 -224l344 -2609h-406l-282 2351l-656 -2142q-30 -105 -105.5 -169.5t-164.5 -64.5q-177 0 -250 226l-655 2158
l-270 -2359h-410z" />
    <glyph glyph-name="N" unicode="N" horiz-adv-x="2503" 
d="M209 0v2511q0 185 94.5 289t233.5 104q226 0 335 -225l1041 -2134v2326h385v-2638q0 -124 -84 -191t-207 -67q-117 0 -220.5 60t-139.5 158l-1053 2183v-2376h-385z" />
    <glyph glyph-name="O" unicode="O" horiz-adv-x="3183" 
d="M504 1487q0 -239 80.5 -448.5t231.5 -372.5t348 -256.5t429 -106.5q208 0 463 115.5t443.5 371.5t195.5 644q0 288 -131.5 547.5t-385 419t-593.5 159.5q-214 0 -411 -84.5t-349.5 -236.5t-236.5 -345t-84 -407zM94 1487q3 299 128.5 559t335.5 453t470 302.5t524 118.5
q264 0 526.5 -87.5t487 -269.5t368 -464.5t163.5 -648.5q0 -276 -109.5 -544.5t-311 -485t-474 -343t-580.5 -126.5h-4q-292 3 -564 106.5t-490.5 303t-344 486t-125.5 640.5z" />
    <glyph glyph-name="P" unicode="P" horiz-adv-x="2048" 
d="M168 0v1954q0 285 127.5 504t340.5 338t462 124q227 0 442 -105.5t353.5 -315t138.5 -500.5q0 -267 -116.5 -475.5t-297 -321t-361.5 -112.5h-552v360h421q290 0 405.5 181t115.5 368q0 124 -47.5 251t-170.5 218.5t-331 91.5q-305 0 -425 -193t-120 -421v-1946h-385z
" />
    <glyph glyph-name="Q" unicode="Q" horiz-adv-x="3183" 
d="M1487 -594v1532h385v-594q172 42 323 138.5t263 240t174.5 333t62.5 414.5q0 202 -79.5 398.5t-224 350t-343.5 243.5t-430 90q-353 0 -610.5 -165t-389 -421.5t-131.5 -523.5q0 -249 108 -482t293.5 -395t405.5 -213v-368q-189 28 -391.5 126t-385 277t-299.5 446.5
t-124 616.5q0 309 118.5 578t327.5 466t477.5 307t567.5 119q335 0 680.5 -171t578.5 -498t253 -764q0 -298 -103 -562t-278 -462.5t-395 -320t-449 -150.5v-586h-385z" />
    <glyph glyph-name="R" unicode="R" 
d="M201 -8v1806q0 537 234 813.5t716 300.5q242 0 441.5 -100t317.5 -287t122 -436q0 -201 -84.5 -371.5t-243.5 -255.5q193 -75 282 -215t95 -358v-889h-385v815q-37 434 -520 434h-422v361h344q210 0 379.5 119t169.5 360q0 227 -154.5 345t-349.5 118
q-183 0 -309.5 -81.5t-187 -210.5t-60.5 -269v-1999h-385z" />
    <glyph glyph-name="S" unicode="S" horiz-adv-x="2048" 
d="M94 360h1012q409 0 455 312q0 177 -97.5 295t-287.5 209q-197 96 -397.5 195.5t-344.5 204t-229.5 248.5t-85.5 335q0 230 108.5 391t276 241t336.5 80h983v-360h-983q-160 0 -249 -97.5t-95 -238.5q13 -171 135 -254q132 -93 258 -159t298.5 -146t246.5 -121
q512 -303 512 -758q0 -171 -74.5 -339t-256 -283t-480.5 -115h-1041v360z" />
    <glyph glyph-name="T" unicode="T" horiz-adv-x="1815" 
d="M8 2511v360h1807v-360h-709v-2511h-385v2511h-713z" />
    <glyph glyph-name="U" unicode="U" 
d="M193 2871h385v-1896q0 -353 161.5 -508.5t403.5 -155.5q181 0 308 95.5t190 240t63 291.5v1933h385v-1904q0 -307 -130 -536t-351.5 -350.5t-481.5 -121.5q-192 3 -361.5 72.5t-300 200.5t-201 312t-70.5 394v1933z" />
    <glyph glyph-name="V" unicode="V" 
d="M-57 2871h401l815 -2375l787 2375h397l-856 -2638q-95 -282 -320 -282q-133 6 -211 82t-141 254z" />
    <glyph glyph-name="W" unicode="W" horiz-adv-x="3641" 
d="M209 2871h385v-1872q0 -238 43.5 -381.5t156 -219t316.5 -87.5q175 0 293.5 83.5t172.5 198.5t54 206v2072h385v-2080q24 -244 179 -362t350 -118q114 5 224.5 52t193.5 157t94 287v2064h385v-2097q-29 -391 -290.5 -607t-615.5 -216q-300 16 -470 136t-234 273
q-152 -261 -340 -331t-451 -70q-281 4 -469 143t-275 343t-87 403v2023z" />
    <glyph glyph-name="X" unicode="X" 
d="M16 2511v360q277 -7 515.5 -111t398 -289t213.5 -423q42 189 152.5 342.5t265.5 259t337.5 162t366.5 59.5v-360q-210 0 -419 -116.5t-349.5 -362t-144.5 -607.5q0 -273 117.5 -517t317 -394t429.5 -154q25 9 49 9v-369q-271 4 -519.5 121.5t-411.5 311t-191 407.5
q-46 -237 -204 -424t-399 -295.5t-524 -120.5v369q224 0 437 128t349 370.5t136 557.5q0 270 -106 519t-315.5 406t-500.5 161z" />
    <glyph glyph-name="Y" unicode="Y" horiz-adv-x="2048" 
d="M94 2871h385v-905q16 -204 147.5 -341.5t422.5 -137.5q200 7 316.5 91t160 194t43.5 210v889h385v-909q-9 -229 -116.5 -407t-273 -286t-347.5 -143v-1126h-394v1126q-278 68 -497.5 268.5t-231.5 604.5v872z" />
    <glyph glyph-name="Z" unicode="Z" horiz-adv-x="2048" 
d="M217 2511v360h1405q307 0 307 -262q0 -185 -123 -360l-1327 -1889h1495v-360h-1581q-127 0 -228 71t-108 208q14 166 127 352l1344 1880h-1311z" />
    <glyph glyph-name="bracketleft" unicode="[" horiz-adv-x="1593" 
d="M463 -713v3584h713v-192h-361v-3191h361v-201h-713z" />
    <glyph glyph-name="backslash" unicode="\" horiz-adv-x="1135" 
d="M-258 2920h324l1327 -2969h-320z" />
    <glyph glyph-name="bracketright" unicode="]" horiz-adv-x="1593" 
d="M418 -713v201h356v3158h-356v225h708v-3584h-708z" />
    <glyph glyph-name="asciicircum" unicode="^" horiz-adv-x="2458" 
d="M233 1167l840 1704h311l848 -1695h-344l-655 1343l-655 -1352h-345z" />
    <glyph glyph-name="underscore" unicode="_" horiz-adv-x="2048" 
d="M0 -303h2048v-209h-2048v209z" />
    <glyph glyph-name="grave" unicode="`" horiz-adv-x="1135" 
d="M561 2208l-536 585h446l369 -585h-279z" />
    <glyph glyph-name="a" unicode="a" 
d="M1753 0v1135q-8 149 -87 269.5t-222.5 189.5t-337.5 69q-136 0 -283 -63t-251.5 -212.5t-108.5 -388.5q0 -214 90.5 -372t239 -241t313.5 -83q284 0 504 275v-435q-117 -74 -169.5 -103t-141 -53t-226.5 -28q-243 0 -467 128t-364 365.5t-140 546.5q0 278 118.5 507.5
t352.5 365t562 135.5q235 0 422.5 -72.5t312.5 -198t188.5 -288t63.5 -342.5v-1106h-369z" />
    <glyph glyph-name="b" unicode="b" 
d="M168 2871h360v-1847q0 -198 78.5 -362.5t224 -261.5t336.5 -97q212 0 358.5 104t218 264t71.5 320q-9 226 -102 377.5t-234.5 223t-294.5 71.5q-155 0 -267 -42.5t-245 -125.5v377q217 135 487 135q211 0 396.5 -68.5t325.5 -198.5t217 -310.5t77 -397.5
q0 -281 -119.5 -528t-348.5 -396t-540 -149q-287 4 -515.5 144.5t-356 374t-127.5 505.5v1888z" />
    <glyph glyph-name="c" unicode="c" horiz-adv-x="1593" 
d="M176 975q14 401 268.5 683t706.5 308h360v-344h-311q-127 0 -277.5 -67.5t-256 -216t-105.5 -371.5q0 -140 74 -285t223.5 -241.5t358.5 -96.5h294v-344h-360q-313 16 -534 168t-331 371.5t-110 435.5z" />
    <glyph glyph-name="d" unicode="d" 
d="M1761 2863h361v-1921q0 -187 -104.5 -419.5t-335 -402t-576.5 -169.5q-260 6 -450 103t-306.5 248.5t-172.5 315.5t-66 320q0 263 84.5 463.5t218.5 330.5t290.5 197t303.5 70q406 0 610 -135v-385q-260 176 -578 176q-244 -26 -408.5 -201.5t-164.5 -462.5q0 -57 4 -86
q19 -224 128 -361t253 -193t274 -56q201 4 344 106.5t217 282t74 406.5v1773z" />
    <glyph glyph-name="e" unicode="e" 
d="M614 938l979 541q-82 84 -173 134t-285 50q-191 0 -334.5 -95t-220 -258t-76.5 -360q8 -164 85 -313.5t221 -241.5t341 -92q299 6 446.5 159.5t208.5 459.5l361 -50q-3 -143 -69.5 -300t-199 -299.5t-328 -230.5t-444.5 -91q-260 0 -491.5 134t-369.5 362t-138 491
q0 267 90.5 471.5t240.5 337t327.5 196.5t349.5 64q337 0 566.5 -152.5t395.5 -470.5l-1327 -737z" />
    <glyph glyph-name="f" unicode="f" horiz-adv-x="1135" 
d="M217 0v2150q0 260 105.5 421.5t252 227.5t289.5 72h353v-344h-259q-348 0 -380 -319v-242h589v-344h-589v-1622h-361z" />
    <glyph glyph-name="g" unicode="g" 
d="M528 -487q186 -54 308.5 -76.5t261.5 -22.5q188 0 340 73t237.5 206.5t85.5 306.5v958q-4 213 -87.5 374t-220.5 246t-294 85q-179 0 -329.5 -70t-244.5 -226.5t-98 -399.5q9 -25 9 -62q8 -145 86 -285.5t221.5 -228.5t339.5 -88q202 0 475 160v-377q-267 -127 -508 -127
q-274 12 -499 149.5t-350.5 365t-125.5 493.5q0 277 96.5 479t250.5 326t328 179.5t341 55.5q198 -3 370 -71.5t304 -193.5t208.5 -291.5t88.5 -360.5v-1008q0 -101 -33.5 -257t-136 -330t-311 -298t-531.5 -127q-343 0 -672 115z" />
    <glyph glyph-name="h" unicode="h" horiz-adv-x="2048" 
d="M201 2871h352v-1065q121 100 250.5 146.5t302.5 46.5q214 0 387.5 -85.5t276 -263t102.5 -433.5v-1217h-369v1151q0 165 -56 278t-157.5 169.5t-232.5 56.5q-262 0 -383 -160t-121 -369v-1126h-352v2871z" />
    <glyph glyph-name="i" unicode="i" horiz-adv-x="1135" 
d="M352 2417q6 88 69 148.5t148 60.5t149 -62t64 -156q0 -100 -59.5 -158.5t-144.5 -58.5q-91 0 -158.5 62t-67.5 164zM385 0v1966h360v-1966h-360z" />
    <glyph glyph-name="j" unicode="j" horiz-adv-x="913" 
d="M-262 -889v352h160q172 0 254 62.5t104.5 170.5t22.5 304v1966h360v-2167q0 -193 -79.5 -346t-245 -243t-408.5 -99h-168zM242 2400q0 209 204 226q101 0 163.5 -57t62.5 -177q0 -98 -68 -149.5t-141 -51.5q-80 0 -150.5 55t-70.5 154z" />
    <glyph glyph-name="k" unicode="k" horiz-adv-x="1815" 
d="M217 2871h361v-1630h184q133 12 202.5 74.5t178.5 269.5l225 381h410q-26 -42 -178 -305.5t-240.5 -377t-167.5 -124.5q245 -36 354.5 -182.5t116.5 -345.5v-631h-360v520q0 181 -74.5 276t-253.5 101h-397v-897h-361v2871z" />
    <glyph glyph-name="l" unicode="l" horiz-adv-x="913" 
d="M270 2871h361v-2871h-361v2871z" />
    <glyph glyph-name="m" unicode="m" horiz-adv-x="2961" 
d="M201 0v1352q5 172 94 322t256 241.5t387 91.5q331 -9 541 -278q80 118 235 198t359 80q179 0 338.5 -88.5t254.5 -239.5t95 -327v-1352h-361v1241q0 160 -81.5 288.5t-270.5 133.5q-208 0 -296.5 -124.5t-88.5 -297.5v-1241h-369v1217q0 206 -92.5 326t-271.5 120
q-219 -5 -294 -133.5t-75 -337.5v-1192h-360z" />
    <glyph glyph-name="n" unicode="n" horiz-adv-x="2048" 
d="M184 0v1200q0 218 111.5 403t307.5 295t429 117q167 0 363 -85.5t336.5 -277t140.5 -485.5v-1167h-361v1159q0 205 -134.5 355.5t-344.5 156.5q-201 0 -340 -141.5t-139 -337.5v-1192h-369z" />
    <glyph glyph-name="o" unicode="o" 
d="M111 1008q4 282 151 511t382 358.5t482 129.5q256 -5 493 -122t388.5 -345t151.5 -541q0 -236 -111 -472.5t-330.5 -396.5t-517.5 -171q-247 0 -448.5 81.5t-347 227t-221.5 330t-81 393.5q6 5 7.5 10t1.5 7zM487 1016q0 -286 157 -499.5t507 -213.5q181 0 322 72
t223 235.5t82 421.5q-12 285 -190.5 458t-452.5 173q-214 -4 -358.5 -101t-214.5 -243.5t-75 -302.5z" />
    <glyph glyph-name="p" unicode="p" 
d="M168 -881v1864q10 268 101.5 466t235 321t310.5 180t336 57q345 0 576.5 -160t339.5 -395t108 -453q0 -160 -44.5 -329.5t-151 -324t-290.5 -260t-448 -126.5q-150 0 -274.5 26t-294.5 117v377q22 -10 130.5 -63.5t161.5 -74t107 -29.5t129 -9q189 4 328 96t213 249
t74 351q0 203 -94.5 356.5t-246 234.5t-315.5 81q-154 0 -299 -83.5t-238.5 -259.5t-93.5 -431v-1778h-360z" />
    <glyph glyph-name="q" unicode="q" 
d="M1761 -881v1803q-15 275 -113.5 442.5t-237.5 237t-284 69.5q-144 0 -295.5 -72t-255.5 -226.5t-104 -381.5q0 -209 82.5 -363t221 -235.5t298.5 -81.5q131 0 295 42t250 126v-377q-209 -120 -569 -135q-281 0 -495 146.5t-330.5 374t-121.5 454.5q9 16 9 33
q12 318 145 548.5t354.5 353t487.5 130.5q181 0 357 -61t323 -186t239.5 -318.5t104.5 -450.5v-1872h-361z" />
    <glyph glyph-name="r" unicode="r" horiz-adv-x="1135" 
d="M184 1966h344v-229q70 117 201.5 193.5t310.5 76.5h111v-344h-86q-276 0 -394 -201t-126 -430v-1032h-361v1966z" />
    <glyph glyph-name="s" unicode="s" horiz-adv-x="1815" 
d="M119 336h987q12 0 29 -8q96 9 162 43t71 133q0 72 -55.5 124.5t-141 88t-281.5 93.5t-210 62q-286 97 -420.5 220t-140.5 342q0 293 199 410.5t473 117.5h847v-344h-917q-108 0 -166.5 -47t-58.5 -129q6 -64 62.5 -112t145 -81.5t185.5 -57t201 -48.5q341 -97 494 -248.5
t153 -382.5q-36 -512 -639 -512h-123h-856v336z" />
    <glyph glyph-name="t" unicode="t" horiz-adv-x="1360" 
d="M242 614v1852h356v-500h705v-344h-705v-1077q0 -82 66 -141.5t192 -59.5h447v-344h-455q-211 0 -348 84t-197.5 223.5t-60.5 306.5z" />
    <glyph glyph-name="u" unicode="u" horiz-adv-x="2048" 
d="M184 1966h361v-1184q7 -142 74.5 -249.5t172.5 -166t224 -63.5q203 0 338.5 147t148.5 332v1184h361v-1167q0 -234 -107.5 -426.5t-301.5 -303t-439 -110.5q-349 14 -590.5 230t-241.5 659v1118z" />
    <glyph glyph-name="v" unicode="v" horiz-adv-x="1815" 
d="M-57 1966h393l577 -1528l574 1528h385l-688 -1823q-35 -87 -112 -135.5t-167 -48.5q-95 0 -173 54.5t-109 154.5z" />
    <glyph glyph-name="w" unicode="w" horiz-adv-x="2961" 
d="M201 1966h360v-1278q0 -156 90 -270.5t254 -114.5q379 0 389 442v1221h369v-1253q11 -410 393 -410q157 0 250.5 117t93.5 334v1212h361v-1372q-9 -189 -114 -334t-261.5 -223t-304.5 -78q-213 0 -345.5 62.5t-256.5 211.5q-202 -274 -574 -274q-249 7 -408.5 121
t-227.5 269.5t-68 289.5v1327z" />
    <glyph glyph-name="x" unicode="x" horiz-adv-x="1593" 
d="M33 1618v344q243 0 442 -124.5t316 -358.5q69 180 210 290t292.5 153.5t275.5 43.5v-348q-252 -25 -420 -196t-174 -439q0 -227 110 -371.5t252 -206t232 -61.5v-344q-318 0 -490 133t-288 322q-116 -231 -313 -343t-445 -112v344q166 0 299.5 97t207.5 245.5t74 296.5
q0 139 -66 282.5t-199 242.5t-316 110z" />
    <glyph glyph-name="y" unicode="y" horiz-adv-x="2048" 
d="M209 1974h360v-1175q0 -466 455 -488q216 0 335.5 138.5t119.5 341.5v1183h368v-1175q0 -298 -157.5 -524t-481.5 -308v-839h-368v839q-184 52 -320 146t-217.5 241.5t-93.5 350.5v1269z" />
    <glyph glyph-name="z" unicode="z" horiz-adv-x="1593" 
d="M143 1966h975q178 0 269.5 -75t91.5 -195q0 -122 -86 -234l-914 -1118h1008v-344h-1159q-105 0 -180.5 65t-81.5 177q15 171 127 303l880 1077h-930v344z" />
    <glyph glyph-name="braceleft" unicode="{" horiz-adv-x="1593" 
d="M135 958v242q99 0 172 62t110.5 158t37.5 198v749q0 130 49 245t142.5 185t217.5 74h328v-192h-201q-96 -6 -132 -90.5t-36 -270.5v-725q0 -369 -319 -512q178 -81 248.5 -218t70.5 -343v-790q16 -258 185 -258h184v-193h-344q-100 5 -190 67.5t-146.5 181.5t-56.5 279
v623q0 246 -75 377t-245 151z" />
    <glyph glyph-name="bar" unicode="|" horiz-adv-x="913" 
d="M295 0v2871h319v-2871h-319z" />
    <glyph glyph-name="braceright" unicode="}" horiz-adv-x="1593" 
d="M1454 958q-167 -21 -243 -153t-76 -375v-623q0 -161 -55 -279.5t-144.5 -181t-190.5 -67.5h-344v193h185q180 0 188 258v790q0 202 71.5 341t244.5 220q-316 141 -316 512v725q0 185 -37.5 270t-138.5 91h-197v192h328q121 -4 214.5 -74.5t142.5 -185t49 -244.5v-749
q0 -158 87 -288t232 -130v-242z" />
    <glyph glyph-name="asciitilde" unicode="~" horiz-adv-x="2458" 
d="M279 930q182 352 503 352q123 0 235 -35.5t261.5 -108.5t225 -104t159.5 -35q223 15 369 295l143 -254q-119 -174 -239.5 -263t-288.5 -89q-93 0 -175.5 31.5t-226.5 103.5t-247 108t-224 36q-207 0 -344 -295z" />
    <glyph glyph-name="Adieresis" unicode="&#xc4;" 
d="M160 0l8 1905q12 292 139.5 525t342 361.5t476.5 128.5q287 0 512 -129t352.5 -379.5t131.5 -596.5v-1815h-385v1303h-1032v368h1032q0 19 2 55t2 52q0 258 -71.5 432.5t-203.5 262t-315 87.5h-8q-221 0 -353 -109t-184.5 -258.5t-52.5 -287.5v-1905h-393zM586 3289
q0 69 33.5 119t87 76t108.5 26q99 0 166.5 -54t67.5 -151q0 -114 -66.5 -182t-167.5 -76q-99 8 -164 69.5t-65 172.5zM1241 3289q0 102 67 161.5t162 59.5q100 0 167 -55.5t67 -157.5q0 -116 -64 -179t-170 -71q-96 8 -162.5 71.5t-66.5 170.5z" />
    <glyph glyph-name="Aring" unicode="&#xc5;" 
d="M160 0l8 1905q12 292 139.5 525t342 361.5t476.5 128.5q287 0 512 -129t352.5 -379.5t131.5 -596.5v-1815h-385v1303h-1032v368h1032q0 19 2 55t2 52q0 258 -71.5 432.5t-203.5 262t-315 87.5h-8q-221 0 -353 -109t-184.5 -258.5t-52.5 -287.5v-1905h-393zM729 3432
q0 121 59 218t155.5 150.5t199.5 53.5q171 0 294.5 -109.5t123.5 -312.5q0 -184 -120 -293.5t-282 -115.5q-173 0 -298.5 109t-131.5 300zM1368 3432q-6 115 -70.5 174.5t-162.5 59.5q-90 -7 -147.5 -63.5t-57.5 -153.5q0 -103 63 -168.5t150 -65.5q86 0 155.5 58t69.5 159z
" />
    <glyph glyph-name="Ccedilla" unicode="&#xc7;" horiz-adv-x="2048" 
d="M143 1384q0 403 196.5 746t536.5 542t746 199h324v-360h-283q-321 0 -577 -149t-398.5 -408.5t-142.5 -569.5q7 -295 144 -530t365 -364.5t498 -129.5h394v-360h-361l-160 -217q29 0 111 16q360 -16 360 -327q-6 -178 -146.5 -265.5t-348.5 -87.5q-232 0 -393 90l73 152
q141 -57 279 -57q217 0 217 176q0 70 -49.5 116t-143.5 52q-43 -8 -151 -41l-82 90l242 311q-414 44 -694.5 260.5t-415.5 517.5t-140 598z" />
    <glyph glyph-name="Eacute" unicode="&#xc9;" horiz-adv-x="2048" 
d="M94 1417q19 545 274.5 871t593 454.5t631.5 128.5h295v-360h-311q-317 -17 -555.5 -146.5t-371 -315.5t-154.5 -378h1392v-368h-1392q18 -213 132.5 -420.5t331.5 -353t519 -169.5h409v-360h-344q-259 0 -514 94.5t-467.5 279.5t-339 450.5t-129.5 592.5zM1110 3023
l369 594h450l-528 -594h-291z" />
    <glyph glyph-name="Ntilde" unicode="&#xd1;" horiz-adv-x="2503" 
d="M209 0v2511q0 185 94.5 289t233.5 104q226 0 335 -225l1041 -2134v2326h385v-2638q0 -124 -84 -191t-207 -67q-117 0 -220.5 60t-139.5 158l-1053 2183v-2376h-385zM598 3072q8 158 105 296.5t305 149.5q67 0 143.5 -22t178 -63t158 -60t105.5 -22q56 25 102.5 45.5
t74.5 54.5t28 100h193q-17 -140 -81 -242.5t-148.5 -153t-159.5 -50.5q-104 0 -183 22.5t-241 75.5t-220 53q-56 -7 -107.5 -62t-51.5 -122h-201z" />
    <glyph glyph-name="Odieresis" unicode="&#xd6;" horiz-adv-x="3183" 
d="M504 1487q0 -239 80.5 -448.5t231.5 -372.5t348 -256.5t429 -106.5q208 0 463 115.5t443.5 371.5t195.5 644q0 288 -131.5 547.5t-385 419t-593.5 159.5q-214 0 -411 -84.5t-349.5 -236.5t-236.5 -345t-84 -407zM94 1487q3 299 128.5 559t335.5 453t470 302.5t524 118.5
q264 0 526.5 -87.5t487 -269.5t368 -464.5t163.5 -648.5q0 -276 -109.5 -544.5t-311 -485t-474 -343t-580.5 -126.5h-4q-292 3 -564 106.5t-490.5 303t-344 486t-125.5 640.5zM1032 3297q0 102 70 161.5t164 59.5t161.5 -54t67.5 -150q0 -116 -65 -184t-164 -74
q-100 7 -167 67.5t-67 173.5zM1688 3297q0 102 67 161.5t166 59.5q97 0 163 -55t66 -158q0 -116 -64.5 -179.5t-164.5 -69.5q-98 6 -165.5 70t-67.5 171z" />
    <glyph glyph-name="Udieresis" unicode="&#xdc;" 
d="M193 2871h385v-1896q0 -353 161.5 -508.5t403.5 -155.5q181 0 308 95.5t190 240t63 291.5v1933h385v-1904q0 -307 -130 -536t-351.5 -350.5t-481.5 -121.5q-192 3 -361.5 72.5t-300 200.5t-201 312t-70.5 394v1933zM586 3297q0 68 33 118t85.5 76.5t110.5 26.5
q98 0 166 -53.5t68 -150.5q0 -114 -67.5 -183t-166.5 -75q-97 7 -163 68t-66 173zM1241 3297q0 102 67 161.5t162 59.5q100 0 167 -55.5t67 -157.5q0 -116 -65 -179.5t-169 -69.5q-94 6 -161.5 70t-67.5 171z" />
    <glyph glyph-name="aacute" unicode="&#xe1;" horiz-adv-x="2224" 
d="M1753 0v1135q-8 149 -87 269.5t-222.5 189.5t-337.5 69q-136 0 -283 -63t-251.5 -212.5t-108.5 -388.5q0 -214 90.5 -372t239 -241t313.5 -83q284 0 504 275v-435q-117 -74 -169.5 -103t-141 -53t-226.5 -28q-243 0 -467 128t-364 365.5t-140 546.5q0 278 118.5 507.5
t352.5 365t562 135.5q235 0 422.5 -72.5t312.5 -198t188.5 -288t63.5 -342.5v-1106h-369zM840 2200l368 593h447l-529 -593h-286z" />
    <glyph glyph-name="agrave" unicode="&#xe0;" 
d="M1753 0v1135q-8 149 -87 269.5t-222.5 189.5t-337.5 69q-136 0 -283 -63t-251.5 -212.5t-108.5 -388.5q0 -214 90.5 -372t239 -241t313.5 -83q284 0 504 275v-435q-117 -74 -169.5 -103t-141 -53t-226.5 -28q-243 0 -467 128t-364 365.5t-140 546.5q0 278 118.5 507.5
t352.5 365t562 135.5q235 0 422.5 -72.5t312.5 -198t188.5 -288t63.5 -342.5v-1106h-369zM1118 2200l-532 585h446l369 -585h-283z" />
    <glyph glyph-name="acircumflex" unicode="&#xe2;" 
d="M1753 0v1135q-8 149 -87 269.5t-222.5 189.5t-337.5 69q-136 0 -283 -63t-251.5 -212.5t-108.5 -388.5q0 -214 90.5 -372t239 -241t313.5 -83q284 0 504 275v-435q-117 -74 -169.5 -103t-141 -53t-226.5 -28q-243 0 -467 128t-364 365.5t-140 546.5q0 278 118.5 507.5
t352.5 365t562 135.5q235 0 422.5 -72.5t312.5 -198t188.5 -288t63.5 -342.5v-1106h-369zM528 2200l414 585h377l410 -585h-328l-275 393l-262 -393h-336z" />
    <glyph glyph-name="adieresis" unicode="&#xe4;" 
d="M1753 0v1135q-8 149 -87 269.5t-222.5 189.5t-337.5 69q-136 0 -283 -63t-251.5 -212.5t-108.5 -388.5q0 -214 90.5 -372t239 -241t313.5 -83q284 0 504 275v-435q-117 -74 -169.5 -103t-141 -53t-226.5 -28q-243 0 -467 128t-364 365.5t-140 546.5q0 278 118.5 507.5
t352.5 365t562 135.5q235 0 422.5 -72.5t312.5 -198t188.5 -288t63.5 -342.5v-1106h-369zM569 2466q0 101 69.5 161t160.5 60q99 0 166 -54.5t67 -154.5q0 -115 -65.5 -181.5t-167.5 -72.5q-97 7 -163.5 69t-66.5 173zM1225 2466q0 102 66.5 161.5t162.5 59.5
q100 0 167 -55.5t67 -157.5q0 -117 -65 -180.5t-169 -69.5q-97 7 -163 70t-66 172z" />
    <glyph glyph-name="atilde" unicode="&#xe3;" 
d="M1753 0v1135q-8 149 -87 269.5t-222.5 189.5t-337.5 69q-136 0 -283 -63t-251.5 -212.5t-108.5 -388.5q0 -214 90.5 -372t239 -241t313.5 -83q284 0 504 275v-435q-117 -74 -169.5 -103t-141 -53t-226.5 -28q-243 0 -467 128t-364 365.5t-140 546.5q0 278 118.5 507.5
t352.5 365t562 135.5q235 0 422.5 -72.5t312.5 -198t188.5 -288t63.5 -342.5v-1106h-369zM430 2241q8 156 105.5 295.5t304.5 150.5q67 0 143.5 -22t187.5 -67t158 -60.5t96 -18.5q56 25 102.5 45.5t74.5 54.5t28 101h193q-25 -209 -145 -328t-244 -119q-104 0 -174 20
t-241.5 76t-227.5 56q-57 -7 -108.5 -62t-51.5 -122h-201z" />
    <glyph glyph-name="aring" unicode="&#xe5;" 
d="M1753 0v1135q-8 149 -87 269.5t-222.5 189.5t-337.5 69q-136 0 -283 -63t-251.5 -212.5t-108.5 -388.5q0 -214 90.5 -372t239 -241t313.5 -83q284 0 504 275v-435q-117 -74 -169.5 -103t-141 -53t-226.5 -28q-243 0 -467 128t-364 365.5t-140 546.5q0 278 118.5 507.5
t352.5 365t562 135.5q235 0 422.5 -72.5t312.5 -198t188.5 -288t63.5 -342.5v-1106h-369zM721 2601q0 121 59 218t155.5 150.5t199.5 53.5q170 0 293.5 -109.5t123.5 -312.5q0 -124 -56.5 -215t-149.5 -140.5t-195 -54.5q-170 0 -297 110.5t-133 299.5zM1360 2601
q-6 114 -70.5 171.5t-163.5 57.5q-89 -6 -146.5 -61.5t-57.5 -151.5q0 -103 63 -168t150 -65q86 0 155.5 58t69.5 159z" />
    <glyph glyph-name="ccedilla" unicode="&#xe7;" horiz-adv-x="1593" 
d="M176 975q0 243 92 431.5t240.5 312.5t322.5 185.5t336 61.5h336v-344h-286q-194 0 -345.5 -83t-235 -233t-83.5 -339q0 -171 86.5 -315.5t235.5 -226t325 -81.5h303v-344h-327l-168 -217q17 4 55 8t55 8q155 -7 258 -77.5t103 -225.5q0 -172 -125.5 -278.5t-337.5 -106.5
q-110 0 -235.5 26t-186.5 72l78 168q20 -20 108.5 -46.5t169.5 -26.5q209 0 209 159q0 81 -54.5 126t-137.5 51q-40 -6 -152 -33l-70 90l238 319q-177 32 -365 147t-315 321.5t-127 490.5z" />
    <glyph glyph-name="eacute" unicode="&#xe9;" 
d="M614 938l979 541q-82 84 -173 134t-285 50q-191 0 -334.5 -95t-220 -258t-76.5 -360q8 -164 85 -313.5t221 -241.5t341 -92q299 6 446.5 159.5t208.5 459.5l361 -50q-3 -143 -69.5 -300t-199 -299.5t-328 -230.5t-444.5 -91q-260 0 -491.5 134t-369.5 362t-138 491
q0 267 90.5 471.5t240.5 337t327.5 196.5t349.5 64q337 0 566.5 -152.5t395.5 -470.5l-1327 -737zM864 2191l369 594h446l-528 -594h-287z" />
    <glyph glyph-name="egrave" unicode="&#xe8;" 
d="M614 938l979 541q-82 84 -173 134t-285 50q-191 0 -334.5 -95t-220 -258t-76.5 -360q8 -164 85 -313.5t221 -241.5t341 -92q299 6 446.5 159.5t208.5 459.5l361 -50q-3 -143 -69.5 -300t-199 -299.5t-328 -230.5t-444.5 -91q-260 0 -491.5 134t-369.5 362t-138 491
q0 267 90.5 471.5t240.5 337t327.5 196.5t349.5 64q337 0 566.5 -152.5t395.5 -470.5l-1327 -737zM1126 2200l-532 585h446l369 -585h-283z" />
    <glyph glyph-name="ecircumflex" unicode="&#xea;" 
d="M614 938l979 541q-82 84 -173 134t-285 50q-191 0 -334.5 -95t-220 -258t-76.5 -360q8 -164 85 -313.5t221 -241.5t341 -92q299 6 446.5 159.5t208.5 459.5l361 -50q-3 -143 -69.5 -300t-199 -299.5t-328 -230.5t-444.5 -91q-260 0 -491.5 134t-369.5 362t-138 491
q0 267 90.5 471.5t240.5 337t327.5 196.5t349.5 64q337 0 566.5 -152.5t395.5 -470.5l-1327 -737zM537 2200l413 585h377l410 -585h-328l-274 393l-263 -393h-335z" />
    <glyph glyph-name="edieresis" unicode="&#xeb;" 
d="M614 938l979 541q-82 84 -173 134t-285 50q-191 0 -334.5 -95t-220 -258t-76.5 -360q8 -164 85 -313.5t221 -241.5t341 -92q299 6 446.5 159.5t208.5 459.5l361 -50q-3 -143 -69.5 -300t-199 -299.5t-328 -230.5t-444.5 -91q-260 0 -491.5 134t-369.5 362t-138 491
q0 267 90.5 471.5t240.5 337t327.5 196.5t349.5 64q337 0 566.5 -152.5t395.5 -470.5l-1327 -737zM578 2466q0 101 68.5 161t160.5 60q99 0 166 -54.5t67 -154.5q0 -115 -65.5 -181.5t-167.5 -72.5q-97 7 -163 69t-66 173zM1233 2466q0 102 66.5 161.5t162.5 59.5
q100 0 167 -55.5t67 -157.5q0 -117 -65 -180.5t-169 -69.5q-97 7 -163 70t-66 172z" />
    <glyph glyph-name="iacute" unicode="&#xed;" horiz-adv-x="1135" 
d="M754 0h-361v1966h361v-1966zM287 2191l368 594h451l-528 -594h-291z" />
    <glyph glyph-name="igrave" unicode="&#xec;" horiz-adv-x="1135" 
d="M754 0h-361v1966h361v-1966zM553 2200l-537 585h447l368 -585h-278z" />
    <glyph glyph-name="icircumflex" unicode="&#xee;" horiz-adv-x="1135" 
d="M754 0h-361v1966h361v-1966zM-41 2200l418 585h377l405 -585h-328l-270 393l-266 -393h-336z" />
    <glyph glyph-name="idieresis" unicode="&#xef;" horiz-adv-x="1135" 
d="M754 0h-361v1966h361v-1966zM0 2466q0 102 70 161.5t163 59.5q96 0 163 -55t67 -154q0 -114 -65.5 -181t-164.5 -73q-99 6 -166 68t-67 174zM655 2466q0 102 69 161.5t165 59.5q97 0 163 -55t66 -158q0 -118 -64 -181t-165 -69q-97 7 -165.5 70t-68.5 172z" />
    <glyph glyph-name="ntilde" unicode="&#xf1;" horiz-adv-x="2048" 
d="M184 0v1200q0 218 111.5 403t307.5 295t429 117q167 0 363 -85.5t336.5 -277t140.5 -485.5v-1167h-361v1159q0 205 -134.5 355.5t-344.5 156.5q-201 0 -340 -141.5t-139 -337.5v-1192h-369zM319 2241q5 94 45 193t131.5 172.5t233.5 80.5q68 0 142 -21.5t189 -68
t157.5 -61t93.5 -17.5q54 24 103.5 45t77.5 55t28 101h192q-28 -208 -148.5 -327.5t-244.5 -119.5q-101 0 -174.5 20.5t-242 76t-222.5 55.5q-59 -6 -109.5 -61.5t-50.5 -122.5h-201z" />
    <glyph glyph-name="oacute" unicode="&#xf3;" 
d="M111 1008q4 282 151 511t382 358.5t482 129.5q256 -5 493 -122t388.5 -345t151.5 -541q0 -236 -111 -472.5t-330.5 -396.5t-517.5 -171q-247 0 -448.5 81.5t-347 227t-221.5 330t-81 393.5q6 5 7.5 10t1.5 7zM487 1016q0 -286 157 -499.5t507 -213.5q181 0 322 72
t223 235.5t82 421.5q-12 285 -190.5 458t-452.5 173q-214 -4 -358.5 -101t-214.5 -243.5t-75 -302.5zM872 2191l369 594h447l-529 -594h-287z" />
    <glyph glyph-name="ograve" unicode="&#xf2;" 
d="M111 1008q4 282 151 511t382 358.5t482 129.5q256 -5 493 -122t388.5 -345t151.5 -541q0 -236 -111 -472.5t-330.5 -396.5t-517.5 -171q-247 0 -448.5 81.5t-347 227t-221.5 330t-81 393.5q6 5 7.5 10t1.5 7zM487 1016q0 -286 157 -499.5t507 -213.5q181 0 322 72
t223 235.5t82 421.5q-12 285 -190.5 458t-452.5 173q-214 -4 -358.5 -101t-214.5 -243.5t-75 -302.5zM1135 2200l-537 585h451l368 -585h-282z" />
    <glyph glyph-name="ocircumflex" unicode="&#xf4;" 
d="M111 1008q4 282 151 511t382 358.5t482 129.5q256 -5 493 -122t388.5 -345t151.5 -541q0 -236 -111 -472.5t-330.5 -396.5t-517.5 -171q-247 0 -448.5 81.5t-347 227t-221.5 330t-81 393.5q6 5 7.5 10t1.5 7zM487 1016q0 -286 157 -499.5t507 -213.5q181 0 322 72
t223 235.5t82 421.5q-12 285 -190.5 458t-452.5 173q-214 -4 -358.5 -101t-214.5 -243.5t-75 -302.5zM537 2200l413 585h377l410 -585h-328l-274 393l-263 -393h-335z" />
    <glyph glyph-name="odieresis" unicode="&#xf6;" 
d="M111 1008q4 282 151 511t382 358.5t482 129.5q256 -5 493 -122t388.5 -345t151.5 -541q0 -236 -111 -472.5t-330.5 -396.5t-517.5 -171q-247 0 -448.5 81.5t-347 227t-221.5 330t-81 393.5q6 5 7.5 10t1.5 7zM487 1016q0 -286 157 -499.5t507 -213.5q181 0 322 72
t223 235.5t82 421.5q-12 285 -190.5 458t-452.5 173q-214 -4 -358.5 -101t-214.5 -243.5t-75 -302.5zM578 2466q0 101 68.5 161t160.5 60q99 0 166 -54.5t67 -154.5q0 -115 -65.5 -181.5t-167.5 -72.5q-97 7 -163 69t-66 173zM1233 2466q0 102 66.5 161.5t162.5 59.5
q100 0 167 -55.5t67 -157.5q0 -117 -65 -180.5t-169 -69.5q-97 7 -163 70t-66 172z" />
    <glyph glyph-name="otilde" unicode="&#xf5;" 
d="M111 1008q4 282 151 511t382 358.5t482 129.5q256 -5 493 -122t388.5 -345t151.5 -541q0 -236 -111 -472.5t-330.5 -396.5t-517.5 -171q-247 0 -448.5 81.5t-347 227t-221.5 330t-81 393.5q6 5 7.5 10t1.5 7zM487 1016q0 -286 157 -499.5t507 -213.5q181 0 322 72
t223 235.5t82 421.5q-12 285 -190.5 458t-452.5 173q-214 -4 -358.5 -101t-214.5 -243.5t-75 -302.5zM438 2241q8 156 105.5 295.5t304.5 150.5q67 0 143.5 -22t186.5 -66.5t158 -60.5t98 -19q57 25 102.5 45.5t73.5 54.5t28 101h193q-25 -209 -145 -328t-244 -119
q-104 0 -174 20t-241.5 76t-227.5 56q-57 -7 -108.5 -62t-51.5 -122h-201z" />
    <glyph glyph-name="uacute" unicode="&#xfa;" horiz-adv-x="2048" 
d="M184 1966h361v-1184q7 -142 74.5 -249.5t172.5 -166t224 -63.5q203 0 338.5 147t148.5 332v1184h361v-1167q0 -234 -107.5 -426.5t-301.5 -303t-439 -110.5q-349 14 -590.5 230t-241.5 659v1118zM754 2191l364 594h451l-529 -594h-286z" />
    <glyph glyph-name="ugrave" unicode="&#xf9;" horiz-adv-x="2048" 
d="M184 1966h361v-1184q7 -142 74.5 -249.5t172.5 -166t224 -63.5q203 0 338.5 147t148.5 332v1184h361v-1167q0 -234 -107.5 -426.5t-301.5 -303t-439 -110.5q-349 14 -590.5 230t-241.5 659v1118zM1016 2200l-537 585h451l364 -585h-278z" />
    <glyph glyph-name="ucircumflex" unicode="&#xfb;" horiz-adv-x="2048" 
d="M184 1966h361v-1184q7 -142 74.5 -249.5t172.5 -166t224 -63.5q203 0 338.5 147t148.5 332v1184h361v-1167q0 -234 -107.5 -426.5t-301.5 -303t-439 -110.5q-349 14 -590.5 230t-241.5 659v1118zM426 2200l414 585h377l405 -585h-328l-270 393l-262 -393h-336z" />
    <glyph glyph-name="udieresis" unicode="&#xfc;" horiz-adv-x="2048" 
d="M184 1966h361v-1184q7 -142 74.5 -249.5t172.5 -166t224 -63.5q203 0 338.5 147t148.5 332v1184h361v-1167q0 -234 -107.5 -426.5t-301.5 -303t-439 -110.5q-349 14 -590.5 230t-241.5 659v1118zM463 2466q0 101 71 161t162 60q97 0 165.5 -55.5t68.5 -153.5
q0 -113 -67 -180.5t-167 -73.5q-96 7 -164.5 69t-68.5 173zM1118 2466q0 102 69 161.5t165 59.5t164.5 -56t68.5 -157q0 -117 -65.5 -180.5t-167.5 -69.5q-97 7 -165.5 70t-68.5 172z" />
    <glyph glyph-name="dagger" unicode="&#x2020;" horiz-adv-x="2048" 
d="M262 2150l676 -127l-107 848h386l-107 -848l676 127v-397l-676 127l115 -688q-62 -307 -94.5 -826t-32.5 -911h-156v148q0 395 -41 893t-78 704l115 680l-676 -119v389z" />
    <glyph glyph-name="cent" unicode="&#xa2;" 
d="M1032 2367v504h311v-512h267v-360h-459q-471 -10 -471 -455q0 -231 135 -325t361 -101h434v-364h-267v-529h-311v529q-188 8 -360.5 106t-278.5 282.5t-106 434.5q0 264 133.5 443t311.5 263t300 84z" />
    <glyph glyph-name="sterling" unicode="&#xa3;" 
d="M217 1319v360h262v377q9 263 127 460t303 300.5t385 103.5q333 0 545 -102l-127 -340q-162 74 -344 74q-132 0 -241 -55.5t-173.5 -158.5t-64.5 -233v-426h471v-360h-455v-590q0 -151 -40.5 -224.5t-119.5 -144.5h537q258 0 393.5 124t147.5 347v488h401v-504
q-22 -247 -123 -429.5t-298 -284t-492 -101.5h-1327v352l209 17q169 18 240 101t71 275l-17 574h-270z" />
    <glyph glyph-name="section" unicode="&#xa7;" horiz-adv-x="2048" 
d="M688 1946q-242 257 -242 479q0 140 78 253t210 177.5t282 64.5q193 0 321.5 -61.5t206 -144.5t111.5 -121l-238 -201q-99 119 -188.5 186.5t-196.5 67.5q-117 -3 -179.5 -67.5t-70.5 -161.5q15 -134 107 -226q95 -103 622 -614q185 -185 252.5 -320.5t67.5 -289.5
q0 -133 -71 -231.5t-175.5 -150.5t-200.5 -57q226 -302 226 -512q-5 -140 -80 -252t-217.5 -177.5t-337.5 -65.5q-133 3 -236.5 37.5t-175.5 85t-131.5 112.5t-103.5 109l270 201q141 -267 393 -267q115 0 190.5 60.5t75.5 156.5q0 108 -89.5 245t-209.5 251
q-76 58 -153.5 135.5t-186.5 195.5t-172 181q-229 248 -229 487q0 367 471 435zM991 1569q-151 127 -254 127q-72 0 -121 -50t-55 -118q15 -117 85 -220.5t173 -204t197 -190.5q141 -141 270 -151q79 10 136 53t57 115q0 108 -127 254q-17 18 -164 177t-197 208z" />
    <glyph glyph-name="bullet" unicode="&#x2022;" horiz-adv-x="1135" 
d="M328 983q0 89 59.5 165.5t173.5 76.5q111 0 178.5 -67.5t67.5 -166.5q0 -100 -59 -173t-170 -73q-136 0 -193 83t-57 155z" />
    <glyph glyph-name="paragraph" unicode="&#xb6;" horiz-adv-x="2458" 
d="M991 -561v1904q-257 0 -457 95t-311.5 262t-111.5 373q0 299 131.5 471t324 238t424.5 81h1143v-3424h-340v3162h-459v-3162h-344z" />
    <glyph glyph-name="germandbls" unicode="&#xdf;" horiz-adv-x="2503" 
d="M446 0v1536h-413l86 352h327v254q0 174 78.5 340t246.5 275.5t421 113.5q194 0 357 -74t259.5 -214t96.5 -326q-5 -137 -49.5 -228t-139 -162t-266.5 -155q281 -125 447.5 -218.5t310 -280.5t143.5 -468q0 -197 -93.5 -369t-270.5 -274t-410 -102h-627v344h484
q557 0 557 410q0 166 -84.5 286t-207.5 196t-293.5 151t-213.5 100q-138 83 -152 209q9 107 71.5 159.5t186 116t185 127t61.5 182.5q-12 117 -103.5 181.5t-223.5 64.5q-247 0 -328.5 -125.5t-81.5 -394.5v-2007h-361z" />
    <glyph glyph-name="registered" unicode="&#xae;" horiz-adv-x="3281" 
d="M127 1479q0 239 94 493.5t283.5 473t471.5 351t642 132.5q317 0 596.5 -122.5t489.5 -334.5t326 -478t116 -544q-12 -358 -137 -640.5t-335.5 -471t-482.5 -284t-573 -95.5q-468 7 -807.5 225.5t-511.5 566t-172 728.5zM471 1434q5 -332 151 -611t411.5 -442.5
t604.5 -163.5q187 3 385 68.5t372.5 209t289 384t125.5 571.5q0 228 -92 445t-257.5 389.5t-385.5 271t-465 98.5q-298 0 -559.5 -148t-420.5 -426.5t-159 -645.5zM1057 586v1695h680q338 0 459.5 -136.5t121.5 -366.5q0 -199 -117 -315t-329 -136l479 -741h-303l-438 733
h-267v-733h-286zM1696 1552q187 0 265.5 63t78.5 200q0 241 -377 241h-328v-504h361z" />
    <glyph glyph-name="copyright" unicode="&#xa9;" horiz-adv-x="3281" 
d="M127 1450q0 227 89.5 477.5t273 472.5t470 365.5t658.5 154.5q337 -3 622 -125t489 -333.5t314.5 -488t110.5 -580.5q-3 -240 -100.5 -491t-290.5 -469t-480.5 -350t-652.5 -132q-409 8 -702.5 160.5t-470 387t-253.5 485t-77 466.5zM471 1417q11 -430 202.5 -702
t456.5 -389t508 -117q269 0 537.5 139.5t445.5 418t181 667.5q0 325 -151 606t-414 447.5t-582 166.5q-340 0 -610.5 -167t-422 -452.5t-151.5 -617.5zM831 1450q0 145 46 300.5t144.5 289t259.5 217t382 86.5q252 0 421 -108t249 -251t92 -255h-295q-92 335 -467 335
q-226 0 -369 -158.5t-143 -463.5q4 -184 75 -327t191.5 -221.5t261.5 -78.5q380 0 455 352h283q-53 -313 -259.5 -471.5t-494.5 -158.5q-241 17 -430.5 130t-295.5 314.5t-106 468.5z" />
    <glyph glyph-name="trademark" unicode="&#x2122;" horiz-adv-x="4055" 
d="M721 1176v1433h-512v254h1360v-254h-504v-1433h-344zM1880 1176v1687h520l455 -1200l459 1200h512v-1687h-344v1351l-512 -1351h-234l-512 1335v-1335h-344z" />
    <glyph glyph-name="acute" unicode="&#xb4;" horiz-adv-x="1135" 
d="M295 2200l369 593h446l-524 -593h-291z" />
    <glyph glyph-name="dieresis" unicode="&#xa8;" horiz-adv-x="1135" 
d="M8 2466q0 102 70 161.5t164 59.5q95 0 162 -55t67 -154q0 -115 -64.5 -181.5t-164.5 -72.5q-100 7 -167 68.5t-67 173.5zM664 2466q0 102 67 161.5t166 59.5q97 0 163 -55t66 -158q0 -118 -64 -181t-165 -69q-99 6 -166 69.5t-67 172.5z" />
    <glyph glyph-name="AE" unicode="&#xc6;" horiz-adv-x="3641" 
d="M655 1663h1065q4 41 4 123q0 326 -146.5 543t-479.5 231q-217 0 -352 -106.5t-192.5 -284.5t-57.5 -400v-1769h-385v1798q0 262 69 467.5t196 344.5t306 217t399 93q217 0 403.5 -62.5t328.5 -197t219 -342.5q111 142 252 261.5t370 205.5t537 86h319v-360h-245
q-382 0 -638.5 -154.5t-376.5 -358t-120 -335.5h1380v-360h-1388q11 -232 145.5 -451t361.5 -355.5t492 -136.5h389v-360h-381q-203 4 -409 75t-371 184.5t-244 236.5v-496h-385v1303h-1065v360z" />
    <glyph glyph-name="Oslash" unicode="&#xd8;" horiz-adv-x="3183" 
d="M721 729l1552 1581q-145 119 -323 176.5t-357 57.5q-284 -5 -532 -143t-403 -382t-171 -549q0 -411 234 -741zM463 455q-156 183 -236.5 346t-106.5 318t-26 351q0 169 75 401t245.5 461t462.5 390.5t700 181.5q33 4 98 4q154 0 284 -31.5t227 -79t190 -110.5t151 -102
l320 319h377l-496 -504q157 -206 263 -430.5t106 -560.5q0 -217 -85 -462.5t-268 -471.5t-478 -373.5t-697 -158.5q-206 0 -379.5 53t-275 109.5t-259.5 156.5l-319 -328h-377zM2327 578q172 169 266 378.5t94 427.5q0 444 -229 738l-1545 -1594q286 -222 689 -233
q417 14 725 283z" />
    <glyph glyph-name="plusminus" unicode="&#xb1;" horiz-adv-x="2458" 
d="M1073 1360v594h320v-594h823v-320h-823v-594h-320v594h-823v320h823zM250 -8v311h1966v-311h-1966z" />
    <glyph glyph-name="yen" unicode="&#xa5;" 
d="M176 967v360h762v250h-762l-8 360h672q-133 311 -338.5 442.5t-452.5 131.5v360q273 -17 505.5 -125t388 -295t200.5 -419q17 151 106 297.5t238 269.5t342 196t403 76v-360q-171 -10 -296.5 -53.5t-251.5 -166.5t-250 -354h680l-9 -360h-770v-250h770v-360h-770l8 -967
h-405v967h-762z" />
    <glyph glyph-name="mu" unicode="&#xb5;" horiz-adv-x="2048" 
d="M1503 1966h361v-1151q0 -249 -109.5 -445t-301.5 -303.5t-429 -107.5q-286 0 -479 143v-991h-361v2855h361v-1151q0 -221 141.5 -366.5t337.5 -145.5q199 0 339 145t140 367v1151z" />
    <glyph glyph-name="ordfeminine" unicode="&#xaa;" horiz-adv-x="1368" 
d="M1090 1712v680q-6 139 -110 225t-292 86q-150 0 -277 -91.5t-132 -301.5q0 -188 118 -301t283 -113q183 0 328 168v-266q-91 -55 -155.5 -80t-188.5 -30q-121 0 -235.5 43.5t-206 126.5t-144.5 199t-53 253q0 168 78 307t233 221t369 82q302 0 470 -157.5t168 -386.5
v-664h-253z" />
    <glyph glyph-name="ordmasculine" unicode="&#xba;" horiz-adv-x="1368" 
d="M8 2306q0 218 111 358t267 202.5t286 62.5q126 0 248.5 -38.5t224.5 -117.5t162.5 -200t60.5 -283q0 -156 -97.5 -294t-258 -219t-332.5 -81q-179 5 -333 81t-246.5 213.5t-92.5 315.5zM270 2310q0 -157 105 -277t305 -120q131 0 226.5 57.5t143.5 149.5t48 190
q0 193 -117.5 297.5t-300.5 104.5q-202 0 -306 -118t-104 -284z" />
    <glyph glyph-name="ae" unicode="&#xe6;" horiz-adv-x="3641" 
d="M102 1778q390 229 787 229q284 0 521 -113.5t327 -324.5q112 185 309 307.5t555 122.5q257 -8 444.5 -120t298.5 -268t166 -308l-1327 -549l-135 303l942 385q-67 100 -198 160.5t-306 60.5q-135 -13 -269.5 -94t-223 -234t-88.5 -368q7 -217 114.5 -367.5t263.5 -223.5
t310 -73q190 16 305 83.5t185.5 178t148.5 299.5l327 -135q-129 -417 -400.5 -593.5t-565.5 -176.5q-212 0 -370 55t-254 131.5t-157.5 155t-99.5 129.5q-154 -230 -370 -350.5t-543 -120.5q-173 0 -337.5 61t-273 193t-114.5 332q0 401 390.5 594.5t928.5 302.5
q-69 113 -199 167t-289 54q-349 0 -626 -184zM1528 1135q-513 -79 -864 -271q-93 -53 -156.5 -145.5t-69.5 -181.5q15 -234 377 -234q338 6 527.5 198.5t189.5 518.5q0 74 -4 115z" />
    <glyph glyph-name="oslash" unicode="&#xf8;" 
d="M119 967q0 272 96 473.5t249 326.5t323 182.5t319 57.5q178 0 349.5 -53.5t305.5 -155.5l193 209h352l-369 -397q211 -220 222 -652q0 -190 -102.5 -422t-331.5 -402.5t-582 -174.5q-204 0 -332.5 50.5t-290.5 150.5l-201 -201h-352l377 377q-145 176 -185 296t-40 335z
M594 598l917 954q-142 111 -401 111q-173 0 -312 -94t-218 -252t-84 -342q14 -220 98 -377zM1647 545q131 163 131 438q0 248 -99 377l-909 -934q31 -45 136.5 -85t228.5 -46q342 15 512 250z" />
    <glyph glyph-name="questiondown" unicode="&#xbf;" horiz-adv-x="1815" 
d="M672 1761q0 130 75 200.5t183 70.5t181 -66.5t73 -187.5q0 -123 -72 -187.5t-182 -70.5q-104 6 -181 72t-77 169zM745 1327h361v-917q-41 8 -156 8q-227 0 -388 -128.5t-161 -400.5q28 -233 154 -350t326 -117q259 0 352.5 171.5t93.5 381.5h393q-21 -507 -304.5 -710
t-575.5 -203q-164 0 -353.5 95t-323.5 288.5t-138 468.5q0 269 124.5 460.5t294 291.5t301.5 116v545z" />
    <glyph glyph-name="exclamdown" unicode="&#xa1;" horiz-adv-x="913" 
d="M209 1798q6 110 81 172t173 62q109 0 183.5 -69t74.5 -194q0 -112 -74 -177.5t-176 -71.5q-109 7 -185.5 79.5t-76.5 198.5zM295 1327h344v-2216h-344v2216z" />
    <glyph glyph-name="logicalnot" unicode="&#xac;" horiz-adv-x="2458" 
d="M250 1233v319h1966v-1126h-328v807h-1638z" />
    <glyph glyph-name="florin" unicode="&#x192;" 
d="M94 -520q122 -49 242 -49q162 0 271 111t138 331l287 1544h-553v361h619l94 479q164 672 713 672q127 0 352 -58l-66 -360q-104 41 -225 41q-341 0 -405 -361l-82 -413h585v-361h-647l-192 -1159q-56 -335 -81 -460.5t-107 -312t-242.5 -311t-409.5 -124.5
q-229 0 -418 78z" />
    <glyph glyph-name="guillemotleft" unicode="&#xab;" horiz-adv-x="2048" 
d="M958 991l512 627h316l-512 -635l532 -631h-319zM262 983l512 627l307 8l-503 -635l528 -631h-315z" />
    <glyph glyph-name="guillemotright" unicode="&#xbb;" horiz-adv-x="2048" 
d="M1470 983l-503 635h319l500 -643l-537 -623h-307zM774 983l-504 635h316l495 -635l-520 -631h-311z" />
    <glyph glyph-name="ellipsis" unicode="&#x2026;" horiz-adv-x="4096" 
d="M3174 217q0 107 68.5 168t165.5 61q108 0 179 -61.5t71 -175.5q0 -106 -68.5 -165.5t-165.5 -59.5q-99 0 -174.5 65t-75.5 168zM1806 209q0 115 70 180.5t172 65.5t176 -66t74 -180q-11 -107 -82.5 -166t-167.5 -59q-95 0 -168.5 61.5t-73.5 163.5zM438 217
q0 113 72 175.5t170 62.5q109 0 179.5 -63t70.5 -183q-6 -103 -78.5 -164t-171.5 -61q-95 0 -168.5 63t-73.5 170z" />
    <glyph glyph-name="Agrave" unicode="&#xc0;" 
d="M160 0l8 1905q12 292 139.5 525t342 361.5t476.5 128.5q287 0 512 -129t352.5 -379.5t131.5 -596.5v-1815h-385v1303h-1032v368h1032q0 19 2 55t2 52q0 258 -71.5 432.5t-203.5 262t-315 87.5h-8q-221 0 -353 -109t-184.5 -258.5t-52.5 -287.5v-1905h-393zM1126 3031
l-532 586h446l369 -586h-283z" />
    <glyph glyph-name="Atilde" unicode="&#xc3;" 
d="M160 0l8 1905q12 292 139.5 525t342 361.5t476.5 128.5q287 0 512 -129t352.5 -379.5t131.5 -596.5v-1815h-385v1303h-1032v368h1032q0 19 2 55t2 52q0 258 -71.5 432.5t-203.5 262t-315 87.5h-8q-221 0 -353 -109t-184.5 -258.5t-52.5 -287.5v-1905h-393zM446 3064
q10 162 105.5 300t304.5 146q67 0 143.5 -22t179.5 -63.5t155.5 -60t107.5 -22.5q60 27 104 47t72.5 54t28.5 100h192q-20 -145 -83 -244.5t-146.5 -150.5t-159.5 -51q-104 0 -184.5 23t-241.5 75.5t-217 52.5q-57 -7 -108.5 -62t-51.5 -122h-201z" />
    <glyph glyph-name="Otilde" unicode="&#xd5;" horiz-adv-x="3183" 
d="M504 1487q0 -239 80.5 -448.5t231.5 -372.5t348 -256.5t429 -106.5q208 0 463 115.5t443.5 371.5t195.5 644q0 288 -131.5 547.5t-385 419t-593.5 159.5q-214 0 -411 -84.5t-349.5 -236.5t-236.5 -345t-84 -407zM94 1487q3 299 128.5 559t335.5 453t470 302.5t524 118.5
q264 0 526.5 -87.5t487 -269.5t368 -464.5t163.5 -648.5q0 -276 -109.5 -544.5t-311 -485t-474 -343t-580.5 -126.5h-4q-292 3 -564 106.5t-490.5 303t-344 486t-125.5 640.5zM897 3072q8 159 103 297t303 149q67 0 143.5 -22t178 -63t158 -60t105.5 -22q60 26 105.5 46
t74.5 55t29 99h193q-20 -143 -84.5 -243.5t-148.5 -151.5t-161 -51q-102 0 -186.5 23.5t-241 75.5t-211.5 52q-58 -6 -108.5 -61.5t-50.5 -122.5h-201z" />
    <glyph glyph-name="OE" unicode="&#x152;" horiz-adv-x="4096" 
d="M-8 1434q20 426 219 766.5t519.5 530t686.5 189.5q265 0 510.5 -102t424 -275t257.5 -376q150 265 432.5 484.5t743.5 219.5h262v-368q-351 0 -621.5 -116.5t-424.5 -309.5t-183 -414h1229v-360h-1225q9 -230 144.5 -449t363.5 -356.5t496 -137.5h221v-352h-303
q-261 0 -457 76t-326 189t-222 243t-138 197q-42 -114 -130 -240t-231 -241.5t-352 -194t-471 -86.5q-314 0 -578.5 133t-454.5 352t-291 472.5t-101 484.5v41zM2408 1434q0 291 -135 551.5t-363 417.5t-485 157q-224 0 -415.5 -93t-331.5 -254t-216.5 -366t-76.5 -422
q0 -234 81.5 -440t227 -359t325.5 -234t374 -81q248 13 438 111t319 257t193.5 354t64.5 401z" />
    <glyph glyph-name="oe" unicode="&#x153;" horiz-adv-x="3863" 
d="M57 950q0 226 104.5 465t328 403.5t559.5 172.5q177 0 327 -44t257.5 -111t183 -143.5t112.5 -140.5q112 145 209.5 234.5t254.5 151t384 61.5q673 0 1016 -733l-1393 -602l-127 311l1016 442q-200 230 -545 230q-215 -11 -356 -118.5t-203.5 -264t-62.5 -314.5
q0 -157 99 -310t259 -249t330 -96q285 0 445 176.5t202 417.5l360 -135q-303 -811 -1040 -811q-496 0 -831 467q-139 -197 -354.5 -328t-501.5 -131q-309 0 -542 142.5t-357.5 372t-133.5 484.5zM1753 983q-7 207 -96.5 357.5t-242.5 228.5t-349 78q-158 0 -305 -83
t-238.5 -237t-91.5 -352q0 -222 100 -377t247.5 -229t287.5 -74q244 0 399.5 113t222 271.5t66.5 303.5z" />
    <glyph glyph-name="emdash" unicode="&#x2013;" horiz-adv-x="2048" 
d="M0 856v254h2048v-254h-2048z" />
    <glyph glyph-name="endash" unicode="&#x2014;" horiz-adv-x="4096" 
d="M-33 1098h4088h8v-258h-4088h-8v258z" />
    <glyph glyph-name="quotedblleft" unicode="&#x201c;" horiz-adv-x="1593" 
d="M1118 2040l-188 831h344l151 -831h-307zM360 2040l-184 831h336l152 -831h-304z" />
    <glyph glyph-name="quotedblright" unicode="&#x201d;" horiz-adv-x="1593" 
d="M446 2048h-286l127 840h360zM1225 2048h-287l127 840h352z" />
    <glyph glyph-name="quoteleft" unicode="&#x2018;" horiz-adv-x="913" 
d="M377 2040l-184 831h344l143 -831h-303z" />
    <glyph glyph-name="quoteright" unicode="&#x2019;" horiz-adv-x="913" 
d="M233 2048l144 823h352l-192 -823h-304z" />
    <glyph glyph-name="ydieresis" unicode="&#xff;" horiz-adv-x="1946" 
d="M209 1974h360v-1175q0 -466 455 -488q216 0 335.5 138.5t119.5 341.5v1183h368v-1175q0 -298 -157.5 -524t-481.5 -308v-839h-368v839q-184 52 -320 146t-217.5 241.5t-93.5 350.5v1269zM463 2474q0 101 71 161t162 60q97 0 165.5 -55.5t68.5 -153.5q0 -114 -66 -180
t-168 -74q-99 8 -166 68t-67 174zM1118 2474q0 102 69 161.5t165 59.5t164.5 -56.5t68.5 -160.5q0 -114 -65 -176t-168 -70q-99 8 -166.5 70.5t-67.5 171.5z" />
    <glyph glyph-name="currency" unicode="&#xa4;" 
d="M328 2040l-226 241l193 193l225 -242q150 114 287 170t352 56q88 0 189.5 -23t209 -74.5t195.5 -128.5l221 242l201 -201l-221 -233q205 -258 205 -586q0 -234 -52 -359.5t-153 -263.5l221 -237l-201 -193l-221 230q-258 -205 -561 -205q-209 0 -358.5 44.5t-313.5 160.5
l-217 -238l-201 205l226 233q-132 154 -166.5 306t-34.5 317q0 169 53.5 330.5t147.5 255.5zM1815 1454q-5 185 -92.5 343.5t-245 251.5t-359.5 93q-165 0 -317 -88t-245 -252t-93 -377q0 -214 101.5 -369.5t255 -233t306.5 -77.5q182 0 341 92.5t253.5 252.5t94.5 352v12z
" />
    <glyph glyph-name="guilsinglleft" unicode="&#x2039;" horiz-adv-x="1360" 
d="M279 983l512 635h315l-512 -635l532 -631h-311z" />
    <glyph glyph-name="guilsinglright" unicode="&#x203a;" horiz-adv-x="1360" 
d="M774 983l-512 635h316l503 -643l-536 -623h-312z" />
    <glyph glyph-name="fi" unicode="&#xf001;" horiz-adv-x="2048" 
d="M217 41v2126q0 401 215.5 552.5t464.5 151.5h320v-352h-259q-240 0 -309.5 -118t-79.5 -337q9 -41 9 -98h573v-348h-573v-1577h-361zM1384 2408q0 103 66 160.5t160 57.5q97 0 163 -57t66 -161q0 -103 -66.5 -161t-162.5 -64q-93 7 -159.5 65.5t-66.5 159.5zM1442 8v1958
h356v-1958h-356z" />
    <glyph glyph-name="fl" unicode="&#xf002;" horiz-adv-x="2048" 
d="M578 0h-361v2150q0 333 192 527t504 194h304v-344h-259q-380 0 -380 -368v-193h581v-344h-581v-1622zM1794 0h-360v2871h360v-2871z" />
    <glyph glyph-name="daggerdbl" unicode="&#x2021;" horiz-adv-x="2048" 
d="M262 1761v389l676 -127l-115 848h402l-115 -848l676 127v-389l-676 119l115 -721l-115 -721l676 131v-393l-676 119l115 -848h-402l119 848l-680 -119v393l676 -131l-115 721l115 721z" />
    <glyph glyph-name="periodcentered" unicode="&#xb7;" horiz-adv-x="2048" 
d="M999 2150q221 0 383 -94.5t250 -246t105 -322.5q0 -197 -80.5 -370t-237 -281t-362.5 -115q-226 0 -398.5 99.5t-264 261t-91.5 335.5q0 179 86 345.5t245.5 273.5t364.5 114z" />
    <glyph glyph-name="quotedblbase" unicode="&#x201e;" horiz-adv-x="1593" 
d="M930 -418l151 828h344l-192 -828h-303zM176 -418l143 828h345l-193 -828h-295z" />
    <glyph glyph-name="perthousand" unicode="&#x2030;" horiz-adv-x="4096" 
d="M270 -49l1913 2969h250l-1905 -2969h-258zM-49 2224q0 203 90 360.5t244.5 244t345.5 91.5q175 0 325 -81t240 -231t90 -351q0 -207 -88.5 -361t-239 -236.5t-327.5 -82.5q-168 0 -324 75.5t-256 223.5t-100 348zM1368 586q0 145 48.5 272.5t139.5 224t217.5 150
t282.5 53.5q327 0 491.5 -212.5t172.5 -434.5q0 -197 -94.5 -355t-247 -245.5t-314.5 -87.5q-226 0 -384.5 99.5t-235 247.5t-76.5 288zM262 2249q0 -160 103.5 -252.5t248.5 -100.5q153 8 253 100.5t100 268.5q0 153 -98 236.5t-238 83.5q-149 0 -259 -90t-110 -246z
M1688 614q0 -155 122.5 -249.5t237.5 -94.5q145 0 245.5 100.5t106.5 243.5q0 164 -101.5 258.5t-258.5 94.5q-108 0 -188 -53.5t-122 -135t-42 -164.5zM2830 647q0 140 76.5 291.5t232.5 253.5t379 102q173 0 325.5 -86.5t243.5 -245.5t91 -364q0 -121 -78 -275
t-229.5 -263t-360.5 -109q-166 0 -322.5 76t-257 234t-100.5 386zM3846 639q0 142 -102.5 239t-245.5 97q-182 0 -267 -112t-85 -257q0 -130 96.5 -233t255.5 -103q348 0 348 369z" />
    <glyph glyph-name="Acircumflex" unicode="&#xc2;" 
d="M160 0l8 1905q12 292 139.5 525t342 361.5t476.5 128.5q287 0 512 -129t352.5 -379.5t131.5 -596.5v-1815h-385v1303h-1032v368h1032q0 19 2 55t2 52q0 258 -71.5 432.5t-203.5 262t-315 87.5h-8q-221 0 -353 -109t-184.5 -258.5t-52.5 -287.5v-1905h-393zM545 3023
l413 586h377l410 -586h-328l-274 393l-262 -393h-336z" />
    <glyph glyph-name="Ecircumflex" unicode="&#xca;" horiz-adv-x="2048" 
d="M94 1417q19 545 274.5 871t593 454.5t631.5 128.5h295v-360h-311q-317 -17 -555.5 -146.5t-371 -315.5t-154.5 -378h1392v-368h-1392q18 -213 132.5 -420.5t331.5 -353t519 -169.5h409v-360h-344q-259 0 -514 94.5t-467.5 279.5t-339 450.5t-129.5 592.5zM782 3031
l418 586h377l405 -586h-327l-271 393l-266 -393h-336z" />
    <glyph glyph-name="Aacute" unicode="&#xc1;" 
d="M160 0l8 1905q12 292 139.5 525t342 361.5t476.5 128.5q287 0 512 -129t352.5 -379.5t131.5 -596.5v-1815h-385v1303h-1032v368h1032q0 19 2 55t2 52q0 258 -71.5 432.5t-203.5 262t-315 87.5h-8q-221 0 -353 -109t-184.5 -258.5t-52.5 -287.5v-1905h-393zM872 3023
l369 594h447l-529 -594h-287z" />
    <glyph glyph-name="Edieresis" unicode="&#xcb;" horiz-adv-x="2048" 
d="M94 1417q19 545 274.5 871t593 454.5t631.5 128.5h295v-360h-311q-317 -17 -555.5 -146.5t-371 -315.5t-154.5 -378h1392v-368h-1392q18 -213 132.5 -420.5t331.5 -353t519 -169.5h409v-360h-344q-259 0 -514 94.5t-467.5 279.5t-339 450.5t-129.5 592.5zM823 3297
q0 102 70 161.5t164 59.5q96 0 162.5 -53t66.5 -151q0 -116 -65 -184t-164 -74q-97 7 -165.5 68t-68.5 173zM1479 3297q0 102 68 161.5t165 59.5t165.5 -56t68.5 -157q0 -114 -67 -178.5t-167 -70.5q-96 7 -164.5 70.5t-68.5 170.5z" />
    <glyph glyph-name="Egrave" unicode="&#xc8;" horiz-adv-x="2048" 
d="M94 1417q19 545 274.5 871t593 454.5t631.5 128.5h295v-360h-311q-317 -17 -555.5 -146.5t-371 -315.5t-154.5 -378h1392v-368h-1392q18 -213 132.5 -420.5t331.5 -353t519 -169.5h409v-360h-344q-259 0 -514 94.5t-467.5 279.5t-339 450.5t-129.5 592.5zM1376 3031
l-536 586h446l369 -586h-279z" />
    <glyph glyph-name="Iacute" unicode="&#xcd;" horiz-adv-x="913" 
d="M262 0v2871h393v-2871h-393zM152 3023l368 594h447l-529 -594h-286z" />
    <glyph glyph-name="Icircumflex" unicode="&#xce;" horiz-adv-x="913" 
d="M262 0v2871h393v-2871h-393zM-176 3031l418 586h372l410 -586h-328l-270 393l-266 -393h-336z" />
    <glyph glyph-name="Idieresis" unicode="&#xcf;" horiz-adv-x="913" 
d="M262 0v2871h393v-2871h-393zM-135 3297q0 68 33 118t85.5 76.5t110.5 26.5q98 0 166 -53.5t68 -150.5q0 -115 -66 -183.5t-168 -74.5q-97 7 -163 68t-66 173zM520 3297q0 103 67.5 162t166.5 59q96 0 162.5 -55.5t66.5 -157.5q0 -116 -64.5 -179.5t-164.5 -69.5
q-98 6 -166 69.5t-68 171.5z" />
    <glyph glyph-name="Igrave" unicode="&#xcc;" horiz-adv-x="913" 
d="M262 0v2871h393v-2871h-393zM418 3039l-537 586h447l368 -586h-278z" />
    <glyph glyph-name="Oacute" unicode="&#xd3;" horiz-adv-x="3183" 
d="M504 1487q0 -239 80.5 -448.5t231.5 -372.5t348 -256.5t429 -106.5q208 0 463 115.5t443.5 371.5t195.5 644q0 288 -131.5 547.5t-385 419t-593.5 159.5q-214 0 -411 -84.5t-349.5 -236.5t-236.5 -345t-84 -407zM94 1487q3 299 128.5 559t335.5 453t470 302.5t524 118.5
q264 0 526.5 -87.5t487 -269.5t368 -464.5t163.5 -648.5q0 -276 -109.5 -544.5t-311 -485t-474 -343t-580.5 -126.5h-4q-292 3 -564 106.5t-490.5 303t-344 486t-125.5 640.5zM1319 3023l369 594h446l-524 -594h-291z" />
    <glyph glyph-name="Ocircumflex" unicode="&#xd4;" horiz-adv-x="3183" 
d="M504 1487q0 -239 80.5 -448.5t231.5 -372.5t348 -256.5t429 -106.5q208 0 463 115.5t443.5 371.5t195.5 644q0 288 -131.5 547.5t-385 419t-593.5 159.5q-214 0 -411 -84.5t-349.5 -236.5t-236.5 -345t-84 -407zM94 1487q3 299 128.5 559t335.5 453t470 302.5t524 118.5
q264 0 526.5 -87.5t487 -269.5t368 -464.5t163.5 -648.5q0 -276 -109.5 -544.5t-311 -485t-474 -343t-580.5 -126.5h-4q-292 3 -564 106.5t-490.5 303t-344 486t-125.5 640.5zM991 3031l418 586h377l405 -586h-327l-271 393l-266 -393h-336z" />
    <glyph glyph-name="Ograve" unicode="&#xd2;" horiz-adv-x="3183" 
d="M504 1487q0 -239 80.5 -448.5t231.5 -372.5t348 -256.5t429 -106.5q208 0 463 115.5t443.5 371.5t195.5 644q0 288 -131.5 547.5t-385 419t-593.5 159.5q-214 0 -411 -84.5t-349.5 -236.5t-236.5 -345t-84 -407zM94 1487q3 299 128.5 559t335.5 453t470 302.5t524 118.5
q264 0 526.5 -87.5t487 -269.5t368 -464.5t163.5 -648.5q0 -276 -109.5 -544.5t-311 -485t-474 -343t-580.5 -126.5h-4q-292 3 -564 106.5t-490.5 303t-344 486t-125.5 640.5zM1585 3039l-536 586h446l369 -586h-279z" />
    <glyph glyph-name="Uacute" unicode="&#xda;" 
d="M193 2871h385v-1896q0 -353 161.5 -508.5t403.5 -155.5q181 0 308 95.5t190 240t63 291.5v1933h385v-1904q0 -307 -130 -536t-351.5 -350.5t-481.5 -121.5q-192 3 -361.5 72.5t-300 200.5t-201 312t-70.5 394v1933zM872 3023l369 594h447l-529 -594h-287z" />
    <glyph glyph-name="Ucircumflex" unicode="&#xdb;" 
d="M193 2871h385v-1896q0 -353 161.5 -508.5t403.5 -155.5q181 0 308 95.5t190 240t63 291.5v1933h385v-1904q0 -307 -130 -536t-351.5 -350.5t-481.5 -121.5q-192 3 -361.5 72.5t-300 200.5t-201 312t-70.5 394v1933zM545 3031l413 586h377l410 -586h-328l-274 393
l-262 -393h-336z" />
    <glyph glyph-name="Ugrave" unicode="&#xd9;" 
d="M193 2871h385v-1896q0 -353 161.5 -508.5t403.5 -155.5q181 0 308 95.5t190 240t63 291.5v1933h385v-1904q0 -307 -130 -536t-351.5 -350.5t-481.5 -121.5q-192 3 -361.5 72.5t-300 200.5t-201 312t-70.5 394v1933zM1135 3031l-537 586h451l368 -586h-282z" />
    <glyph glyph-name="dotlessi" unicode="&#x131;" horiz-adv-x="1135" 
d="M754 0h-361v1966h361v-1966z" />
    <glyph glyph-name="circumflex" unicode="&#x2c6;" horiz-adv-x="1135" 
d="M-33 2200l418 585h377l405 -585h-327l-271 393l-266 -393h-336z" />
    <glyph glyph-name="tilde" unicode="&#x2dc;" horiz-adv-x="1135" 
d="M-127 2241q8 157 103.5 296t302.5 150q67 0 143.5 -22t187.5 -67t158 -60.5t96 -18.5q60 26 105.5 46t74.5 55t29 100h193q-28 -208 -149.5 -327.5t-244.5 -119.5q-102 0 -175.5 20.5t-241 76t-222.5 55.5q-58 -6 -108.5 -61.5t-50.5 -122.5h-201z" />
    <glyph glyph-name="breve" unicode="&#x2d8;" horiz-adv-x="1135" 
d="M143 2785q43 -306 426 -319q352 0 430 319h201q-38 -315 -224 -438t-431 -123q-305 6 -454 161t-157 400h209z" />
    <glyph glyph-name="ring" unicode="&#x2da;" horiz-adv-x="1135" 
d="M152 2609q0 121 59 218t156 150.5t202 53.5q168 0 291 -110t123 -312q0 -183 -119.5 -293t-277.5 -116q-173 0 -300.5 109.5t-133.5 299.5zM791 2609q-6 115 -69.5 172.5t-160.5 57.5q-91 -6 -150 -61.5t-59 -151.5q0 -106 64 -170t153 -64q84 0 153 58.5t69 158.5z" />
    <glyph glyph-name="cedilla" unicode="&#xb8;" horiz-adv-x="1135" 
d="M270 -311l267 352h200l-200 -266q61 12 135 24q152 -6 248 -91.5t96 -235.5q0 -127 -115.5 -240t-380.5 -113q-212 0 -393 90l74 152q120 -49 262 -49q242 0 242 176q0 64 -59.5 109t-149.5 51q-65 -10 -144 -49z" />
  </font>
</defs>
</svg>
